<svg width="259" height="62" viewBox="0 0 259 62" fill="none" xmlns="http://www.w3.org/2000/svg">
<path d="M24.558 0.472917C20.6227 2.40933 22.1531 8.40594 26.5569 8.40594C28.1185 8.40594 29.118 7.84376 29.9925 6.56323C32.4286 2.94028 28.4933 -1.46349 24.558 0.472917Z" fill="#FFDD00"/>
<path d="M89.3965 3.93964C89.3965 4.09581 89.3965 9.03053 89.4277 14.9647C89.4589 26.9267 89.4589 26.8642 91.614 28.3009C92.4885 28.9256 93.0507 29.0193 95.3931 29.0193H98.1728V26.5207V24.0221H96.2988H94.4249V13.8715V3.72102H91.9263C90.5521 3.72102 89.4277 3.81471 89.3965 3.93964Z" fill="#0D52F2"/>
<path d="M204.863 6.84426V9.9675H199.366C194.15 9.9675 193.775 9.99873 192.807 10.6546C190.527 12.2162 190.465 12.4349 190.465 19.4309C190.465 25.1777 190.527 25.8336 191.089 26.7705C192.401 28.9568 192.713 29.0193 201.833 29.0193H209.985V16.3701V3.72102H207.424H204.832L204.863 6.84426ZM204.894 19.5558L204.925 24.0221H200.272H195.618V19.4934V14.9334L200.24 15.0271L204.832 15.1208L204.894 19.5558Z" fill="#0D52F2"/>
<path d="M231.129 5.96978C231.16 7.21908 231.192 8.34344 231.192 8.46837C231.223 8.62453 232.347 8.71823 233.722 8.71823H236.22V6.21964V3.72105H233.659H231.067L231.129 5.96978Z" fill="#021031"/>
<path d="M65.0666 5.62618C64.6293 5.81357 63.9422 6.25083 63.5674 6.62562C61.9746 8.09354 61.9434 8.31216 61.9434 19.0249V29.0192H64.5356H67.0967L67.003 25.2714L66.9093 21.5235H73.8117H80.714L80.6516 25.1777L80.6203 28.8631L83.1502 28.9568L85.68 29.0505V18.9312C85.68 8.93681 85.68 8.81188 84.9929 7.78121C84.5868 7.21903 83.8685 6.43822 83.4 6.09467C82.5567 5.47002 82.0883 5.43878 74.1865 5.37632C69.0643 5.34509 65.5351 5.43878 65.0666 5.62618ZM80.6516 13.403L80.6203 16.214H73.8429H67.0967L67.0342 13.403L66.9718 10.5921H73.8429H80.714L80.6516 13.403Z" fill="#0D52F2"/>
<path d="M19.0924 9.56149C17.2497 10.7171 17.0623 12.9346 18.6864 14.5587C19.6858 15.5581 19.9357 15.6518 21.06 15.4956C22.4967 15.3083 23.3088 14.6836 23.8397 13.3718C24.3394 12.2162 24.0271 11.0294 22.9028 9.93628C21.8721 8.87438 20.4042 8.74945 19.0924 9.56149Z" fill="#FFDD00"/>
<path d="M103.17 10.6546C100.921 12.185 100.828 12.4973 100.734 18.9624C100.609 25.7086 100.89 26.9579 102.795 28.2384C103.951 29.0193 103.951 29.0193 111.978 29.0193H119.973L120.098 26.833C120.161 25.6149 120.161 24.4906 120.098 24.3344C120.036 24.147 117.225 24.0221 112.821 24.0221H105.669V23.0851V22.1481H112.977H120.285L120.254 17.8381C120.192 13.0283 119.848 11.9976 117.849 10.6858C116.881 9.99873 116.538 9.96749 110.51 9.96749C104.482 9.96749 104.138 9.99873 103.17 10.6546ZM115.038 16.3701V17.8068L110.447 17.7131L105.856 17.6194L105.794 16.5263C105.762 15.9329 105.794 15.3395 105.887 15.1833C105.95 15.0584 108.042 14.9647 110.541 14.9647H115.038V16.3701Z" fill="#0D52F2"/>
<path d="M122.784 10.7483C122.659 11.373 123.221 12.2162 125.845 15.3395C127.625 17.432 129.093 19.2747 129.093 19.3997C129.093 19.5246 127.687 21.3673 125.97 23.4599C123.69 26.2708 122.846 27.5201 122.846 28.1447V29.0193H125.47H128.093L130.373 26.2396L132.622 23.4287L134.84 26.2083L137.057 28.988H139.806L142.523 29.0193V28.2072C142.523 27.645 141.523 26.1771 139.243 23.3974L135.964 19.3684L139.243 15.5269C141.648 12.6847 142.523 11.4667 142.523 10.8108V9.96749H139.899H137.245L134.996 12.6222C133.778 14.0902 132.685 15.277 132.56 15.2458C132.466 15.2458 131.404 14.0589 130.186 12.591L128.031 9.96749H125.47C123.003 9.96749 122.909 9.99873 122.784 10.7483Z" fill="#0D52F2"/>
<path d="M145.959 12.4661V14.9647H152.986H160.013V16.0578V17.1509H153.017H145.99L145.896 21.2736C145.802 26.0209 146.146 27.2702 147.989 28.3946C148.926 28.988 149.519 29.0193 157.171 29.0193H165.354L165.26 21.0862C165.166 12.2475 165.166 12.2475 162.824 10.6546C161.825 9.99873 161.575 9.96749 153.892 9.96749H145.959V12.4661ZM160.013 22.7728V24.0221H155.484H150.956V22.7728V21.5235H155.484H160.013V22.7728Z" fill="#0D52F2"/>
<path d="M168.446 19.4934V29.0193H170.944H173.443L173.505 22.0544L173.599 15.1208L178.222 15.0271L182.813 14.9334V21.992V29.0193H185.311H187.81V27.2078C187.935 12.7159 187.904 12.3099 185.842 10.7795C184.999 10.1549 184.53 10.1237 176.691 10.03L168.446 9.93626V19.4934Z" fill="#0D52F2"/>
<path d="M215.482 10.6858C213.233 11.9664 213.108 12.4973 213.108 21.2736V29.0193H215.607H218.105V21.992V14.9647H223.259H228.412V12.4661V9.96749H222.572C217.075 9.96749 216.637 10.03 215.482 10.6858Z" fill="#0D52F2"/>
<path d="M231.223 19.4934V29.0193H233.721H236.22V19.4934V9.96749H233.721H231.223V19.4934Z" fill="#0D52F2"/>
<path d="M238.719 12.4661V14.9647H245.933H253.117L253.023 15.9641L252.929 16.9948L245.84 17.0885L238.719 17.1509V21.3049C238.719 25.9897 239.062 27.1141 240.874 28.3009C241.904 28.988 242.123 29.0193 249.994 29.0193H258.083V21.0862C258.083 13.4031 258.051 13.1532 257.396 12.1538C255.959 10.0924 255.428 9.96749 246.62 9.96749H238.719V12.4661ZM253.086 22.7728V24.0221H248.401H243.716V22.7728V21.5235H248.401H253.086V22.7728Z" fill="#0D52F2"/>
<path d="M26.5259 13.7466C25.0892 14.871 25.4952 17.3384 27.213 18.0567C28.9308 18.775 30.6798 17.557 30.7111 15.6518C30.7111 13.4968 28.2749 12.3724 26.5259 13.7466Z" fill="#FFDD00"/>
<path d="M32.9598 16.5888C32.7099 16.8386 32.585 18.0255 32.585 19.8994C32.585 23.6161 32.0853 24.8029 30.1801 25.6462C29.4305 25.9585 28.8371 26.302 28.8371 26.3957C28.8371 26.4582 29.899 29.0817 31.2108 32.1737C32.5537 35.4219 33.4595 37.9517 33.3033 38.1079C33.1472 38.264 27.6815 40.7002 21.1852 43.5111C2.07093 51.7564 1.25889 52.1312 0.665472 52.6622C-0.177802 53.443 -0.0216404 54.9734 1.22766 58.0029C2.57065 61.2823 2.75804 61.5009 3.91364 61.5009C4.41336 61.5009 12.0653 58.3777 21.1227 54.4424C34.3028 48.7269 37.4572 47.4776 37.7071 47.8212C37.8633 48.071 39.0501 50.8507 40.3618 54.0052C42.1109 58.2528 42.9541 59.8769 43.5788 60.3453L44.4533 61.0012L47.4828 59.7519C50.8559 58.4089 51.9491 57.5657 51.9491 56.3476C51.9491 55.8791 50.2 51.4129 48.0762 46.4157C45.9524 41.3873 42.3607 32.8608 40.0808 27.4576C37.832 22.0544 35.7707 17.3071 35.5208 16.9011C35.0211 16.1515 33.5844 15.9641 32.9598 16.5888Z" fill="#021031"/>
<path d="M12.7835 17.0885C12.6273 17.3695 7.13042 30.331 2.60173 41.1062C0.196834 46.8842 -0.240419 48.1335 0.103137 48.5395C0.321764 48.7893 0.759017 49.008 1.10257 49.008C2.22694 49.008 11.6904 44.8853 12.1276 44.1982C12.7835 43.1675 19.4672 27.3014 19.4672 26.8017C19.4672 26.5206 18.9987 26.2083 18.3116 26.0209C16.4064 25.5524 15.9692 24.5842 15.7506 20.524L15.5632 16.9948L14.2514 16.9011C13.5643 16.8386 12.8772 16.9323 12.7835 17.0885Z" fill="#021031"/>
<path d="M22.1845 18.9625C21.5598 19.6496 21.4974 21.2425 22.0283 21.7734C22.5593 22.3044 24.3395 22.2419 24.9017 21.6485C25.5888 20.9926 25.5264 19.5559 24.8392 18.9313C24.0897 18.2441 22.8091 18.2754 22.1845 18.9625Z" fill="#FFDD00"/>
<path d="M62.5366 33.6729L61.6309 34.5787V45.7286V56.8786L62.5366 57.7843L63.4736 58.6901L132.841 58.6276L202.208 58.5339L202.27 50.4135L202.333 42.2931L206.112 42.1994C209.547 42.1369 209.953 42.1681 210.703 42.7615C211.515 43.4174 211.546 43.5424 211.546 46.5407C211.546 48.2584 211.421 49.945 211.234 50.2573C210.797 51.0694 209.266 51.5066 206.83 51.5066H204.675V55.0983V58.6901H208.735H212.796V50.4135V42.1369H216.7C220.448 42.1369 220.666 42.1681 221.385 42.9177C222.103 43.6048 222.165 43.9171 222.165 46.6344C222.165 49.3203 222.103 49.6951 221.416 50.4759C220.635 51.3817 220.541 51.3817 215.856 51.5066C215.357 51.5066 215.294 51.8814 215.294 55.0983V58.6901H235.908C249.868 58.6901 256.74 58.5964 257.239 58.3465C258.801 57.6282 258.863 57.3783 258.957 46.8218C259.082 35.7655 258.988 34.5787 257.926 33.5168L257.177 32.7672H160.325H63.4423L62.5366 33.6729ZM72.5622 40.263V41.5122H70.8444C69.9074 41.5122 69.1266 41.6372 69.1266 41.8246C69.1266 41.9807 69.9074 42.1369 70.8444 42.1369H72.5622V43.3862V44.6355H70.8444H69.1266V48.071C69.1266 51.7565 69.1266 51.7877 67.4089 51.3192C66.8154 51.1631 66.7842 50.9132 66.7842 45.916C66.7842 39.3572 66.9404 39.0761 70.782 39.0449L72.5622 39.0137V40.263ZM110.916 40.6377L111.009 42.1369H113.664C116.069 42.1369 116.381 42.1994 117.1 42.9177C117.849 43.6673 117.88 43.7922 117.787 47.5089L117.693 51.3505H116.6H115.507L115.413 47.9774L115.319 44.6355H113.164H111.009L110.916 47.9774L110.822 51.3505H109.729H108.636L108.542 45.5725C108.511 42.418 108.542 39.6383 108.636 39.3884C108.729 39.1386 109.167 39.0137 109.791 39.0761C110.791 39.1698 110.822 39.2323 110.916 40.6377ZM148.082 40.3254L148.176 41.5122H146.927H145.646V40.2317V38.9824L146.833 39.0761C147.926 39.1698 147.988 39.2323 148.082 40.3254ZM173.131 44.0108V49.008H174.067C174.942 49.008 175.004 49.0705 175.004 50.1949C175.004 51.1943 174.911 51.3817 174.317 51.4441C173.224 51.5378 171.6 50.882 171.257 50.2573C171.069 49.945 170.944 47.2902 170.944 44.3544V39.0137H172.037H173.131V44.0108ZM225.851 44.0733L225.944 49.008H226.881C227.756 49.008 227.787 49.0705 227.693 50.1012C227.537 51.5378 227.444 51.6003 225.913 51.3505C223.508 50.9444 223.415 50.6946 223.415 44.4481V38.9824L224.602 39.0761L225.757 39.1698L225.851 44.0733ZM231.535 40.263V41.5122H230.286C229.068 41.5122 229.036 41.481 229.036 40.4816C229.036 39.1698 229.193 39.0137 230.504 39.0137C231.504 39.0137 231.535 39.0449 231.535 40.263ZM82.4004 42.9177C83.1187 43.6048 83.1812 43.8859 83.1812 46.7281C83.15 51.0694 82.6503 51.5378 77.9966 51.4129C75.498 51.3505 75.2482 51.288 74.5611 50.4759C73.9052 49.6951 73.8115 49.2891 73.8115 46.9467C73.8115 44.1045 74.3112 42.6054 75.2794 42.3555C75.5917 42.2618 77.1534 42.1994 78.7462 42.1681C81.4322 42.1369 81.7133 42.1994 82.4004 42.9177ZM91.7701 43.3862V44.4793L89.3652 44.573L86.9291 44.6667V47.9149C86.9291 51.3817 86.8042 51.6315 85.2113 51.3817C84.6179 51.288 84.5867 51.0069 84.493 47.4776C84.3993 43.7922 84.4305 43.6673 85.2113 42.8865C85.9297 42.1681 86.1483 42.1057 88.8655 42.1994L91.7701 42.2931V43.3862ZM107.23 43.3862V44.6355H103.795H100.359V46.8218V49.008H103.826H107.261L107.168 50.1636L107.074 51.3505H103.232C99.3908 51.3505 99.3596 51.3505 98.61 50.4759C97.9229 49.6951 97.8604 49.3203 97.8604 46.6344C97.8604 43.9171 97.9229 43.6048 98.6412 42.9177C99.3596 42.1681 99.5782 42.1369 103.326 42.1369H107.23V43.3862ZM127.031 42.4804C128.062 42.9802 128.531 44.1982 128.406 46.2283L128.312 47.9149L125.064 47.9774C122.44 48.0086 121.753 48.1023 121.535 48.5083C121.285 48.9456 121.66 49.008 124.876 49.008H128.499L128.406 50.1636L128.312 51.3505L125.345 51.4441C119.567 51.6315 119.098 51.288 119.098 46.8218C119.098 43.8859 119.161 43.6048 119.879 42.9177C120.566 42.1994 120.879 42.1369 123.44 42.1369C125.001 42.1369 126.594 42.2931 127.031 42.4804ZM142.679 42.9177C143.429 43.636 143.46 43.8547 143.46 47.6026V51.5378L142.304 51.4441L141.117 51.3505L141.024 47.9774L140.93 44.6355H139.556H138.181L138.088 47.9774L137.994 51.3505L136.838 51.4441L135.652 51.5378V48.1023V44.6355H134.09H132.56L132.466 47.9774L132.372 51.3505H131.279H130.186L130.092 46.7281L129.999 42.1369H135.964C141.867 42.1369 141.929 42.1369 142.679 42.9177ZM147.988 46.8218V51.3505L146.833 51.4441L145.646 51.5378V46.8218V42.1057L146.833 42.1994L147.988 42.2931V46.8218ZM158.607 43.3862V44.4793L155.266 44.573L151.955 44.6667L151.83 46.6968C151.799 47.8212 151.799 48.8206 151.861 48.8831C151.924 48.9456 153.517 49.008 155.391 49.008H158.795L158.701 50.1636L158.607 51.3505L155.953 51.4441C152.455 51.5691 150.768 51.3192 150.019 50.4759C149.488 49.9138 149.394 49.3828 149.394 46.7593C149.394 43.8859 149.456 43.6048 150.175 42.8865C150.924 42.1369 151.049 42.1057 154.766 42.1994L158.607 42.2931V43.3862ZM168.664 42.8865C169.539 43.6361 169.539 43.6673 169.539 47.5089V51.3505L166.572 51.4441C161.106 51.6315 160.325 51.1631 160.325 47.7587V45.5725H163.761C166.603 45.5725 167.196 45.4788 167.196 45.104C167.196 44.7292 166.603 44.6355 163.761 44.6355H160.325V43.3862V42.1369H164.042C167.54 42.1369 167.852 42.1994 168.664 42.8865ZM189.621 42.6678C189.996 42.9802 190.371 43.6048 190.496 44.1045L190.683 44.9478L187.216 44.7604C184.124 44.573 183.75 44.6043 183.75 45.0415C183.75 45.51 184.156 45.5725 186.404 45.5725C188.84 45.5725 189.153 45.6349 189.84 46.3533C190.902 47.3839 190.902 49.2579 189.871 50.4759C189.121 51.3192 189.028 51.3505 185.998 51.3505C183.125 51.3505 182.813 51.288 182.063 50.6009C181.626 50.1636 181.251 49.5702 181.251 49.2579C181.251 48.7269 181.47 48.6957 184.686 48.8831C187.747 49.0705 188.122 49.0393 188.122 48.602C188.122 48.1647 187.747 48.071 185.78 48.071C183.312 48.071 181.813 47.5713 181.438 46.6656C180.97 45.4475 181.251 43.6673 182.032 42.9177C182.719 42.1994 183 42.1369 185.873 42.1369C188.403 42.1369 189.121 42.2306 189.621 42.6678ZM194.056 45.5725V49.0393L196.274 48.9456L198.491 48.8519L198.554 45.5725L198.585 42.2931L199.772 42.1994L200.927 42.1057V45.8848C200.927 47.9774 200.802 49.945 200.615 50.2573C200.147 51.1318 198.522 51.5066 195.68 51.3817C191.964 51.2255 191.745 50.9757 191.62 46.4782C191.558 44.6043 191.589 42.8552 191.683 42.6054C191.776 42.3243 192.276 42.1369 192.963 42.1369H194.056V45.5725ZM231.535 46.7905V51.4441L230.379 51.4129L229.193 51.3505L229.13 47.1341C229.099 44.8229 229.13 42.7303 229.193 42.5117C229.255 42.3243 229.817 42.1369 230.442 42.1369H231.535V46.7905ZM241.342 42.7928C242.092 43.3862 242.154 43.6048 242.154 45.7599V48.071H238.719C235.876 48.071 235.283 48.1647 235.283 48.5395C235.283 48.9143 235.876 49.008 238.719 49.008H242.154V50.2885V51.5691L238.281 51.4754C233.097 51.3192 233.097 51.3192 233.097 46.7905C233.097 43.5424 233.128 43.4174 233.909 42.7928C234.627 42.2306 235.189 42.1369 237.625 42.1369C240.062 42.1369 240.624 42.2306 241.342 42.7928ZM252.305 42.9177C252.742 43.3237 253.085 43.9484 253.085 44.3232C253.085 44.9478 252.992 44.9478 249.65 44.7604C246.589 44.573 246.214 44.6043 246.214 45.0415C246.214 45.51 246.62 45.5725 248.869 45.5725C251.305 45.5725 251.618 45.6349 252.305 46.3533C253.367 47.3839 253.367 49.2579 252.336 50.4759C251.586 51.3192 251.493 51.3505 248.401 51.3505C245.309 51.3505 245.215 51.3192 244.465 50.4759C243.06 48.8206 243.31 48.6645 247.151 48.8831C250.212 49.0705 250.587 49.0393 250.587 48.602C250.587 48.1647 250.212 48.071 248.244 48.071C246.964 48.071 245.59 47.9149 245.184 47.7275C243.591 47.0091 243.185 44.1982 244.497 42.9177C245.184 42.1994 245.465 42.1369 248.401 42.1369C251.336 42.1369 251.618 42.1994 252.305 42.9177Z" fill="#FFDD00"/>
</svg>
