<svg width="75" height="83" viewBox="0 0 75 83" fill="none" xmlns="http://www.w3.org/2000/svg">
<path d="M43.8157 2.46714C43.8157 2.5732 43.8157 2.67927 43.8157 2.78855C43.9223 2.82956 44.029 2.87058 44.1389 2.91284C45.1542 3.40824 45.915 4.40738 46.537 5.3981C46.7182 5.69051 46.7182 5.69051 46.9665 5.92917C47.1608 6.16332 47.1608 6.16332 47.1608 6.64544C47.2568 6.64544 47.3528 6.64544 47.4517 6.64544C49.1285 10.1167 49.9047 14.1484 48.897 18.0353C48.4459 19.6372 47.7669 21.2012 46.8699 22.5551C46.7739 22.5551 46.678 22.5551 46.5791 22.5551C46.4831 22.8203 46.3871 23.0854 46.2882 23.3586C46.1922 23.3586 46.0962 23.3586 45.9973 23.3586C45.9408 23.5025 45.9408 23.5025 45.8831 23.6493C45.6933 24.0276 45.5094 24.2237 45.2065 24.4936C44.9543 24.7204 44.7103 24.941 44.4823 25.1973C42.3014 27.5686 38.9831 28.2618 36.0544 28.248C34.1508 28.1959 32.4151 27.724 30.726 26.7334C30.6131 26.6688 30.5002 26.6041 30.3839 26.5376C29.6955 26.1298 29.0517 25.6656 28.4063 25.1804C28.0929 24.946 28.0929 24.946 27.6717 24.7246C27.2857 24.5114 26.9542 24.28 26.5991 24.0115C26.0082 23.567 25.4088 23.2139 24.7629 22.8765C24.7629 22.7705 24.7629 22.6644 24.7629 22.5551C24.5709 22.5551 24.3789 22.5551 24.1811 22.5551C24.1811 22.449 24.1811 22.343 24.1811 22.2337C24.0553 22.1927 23.9295 22.1517 23.7999 22.1094C23.2901 21.905 22.884 21.6504 22.4267 21.3297C22.2606 21.2144 22.0945 21.0991 21.9285 20.9839C21.802 20.8953 21.802 20.8953 21.673 20.805C20.5398 20.0133 19.3993 19.2391 18.218 18.5375C18.218 18.4315 18.218 18.3254 18.218 18.2161C18.0659 18.1947 18.0659 18.1947 17.9106 18.1728C17.3965 18.029 17.0374 17.7783 16.5909 17.4628C16.4222 17.3449 16.2535 17.2271 16.0847 17.1094C15.9247 16.9973 15.7648 16.8852 15.6001 16.7698C15.3582 16.608 15.1159 16.4472 14.8728 16.2877C14.303 15.9117 13.7375 15.5283 13.173 15.1427C12.5339 14.707 11.8925 14.2815 11.2368 13.8771C11.3905 13.3847 11.5099 13.2455 11.9277 12.9832C12.0836 12.907 12.2396 12.8307 12.4003 12.7522C12.5563 12.6627 12.7123 12.5732 12.873 12.481C13.273 12.2701 13.273 12.2701 13.5639 12.2701C13.5639 12.164 13.5639 12.0579 13.5639 11.9487C13.7199 11.8658 13.8758 11.7829 14.0366 11.6976C14.8718 11.2369 15.6694 10.7054 16.4727 10.1809C17.0427 9.80877 17.6028 9.48859 18.218 9.2167C18.559 9.00516 18.8979 8.79076 19.2361 8.57388C22.2976 6.61852 22.2976 6.61852 23.7033 5.86703C24.062 5.67566 24.062 5.67566 24.472 5.35981C25.0363 4.94411 25.6348 4.63334 26.2457 4.30958C26.6118 4.09829 26.9068 3.86505 27.2354 3.59206C27.5055 3.43583 27.7785 3.28559 28.0535 3.14008C28.6198 2.83363 29.1637 2.51436 29.6988 2.14573C34.1244 -0.814641 39.4947 -0.715794 43.8157 2.46714Z" fill="#0A4374"/>
<path d="M53.9965 5.84192C54.5288 6.03795 54.7831 6.36998 55.1601 6.80614C55.8509 7.58552 56.5478 8.34269 57.2974 9.05286C57.8196 9.55851 58.3261 10.083 58.8335 10.6067C59.2186 11.0025 59.6069 11.3832 60.0176 11.7465C60.1424 11.8663 60.2673 11.986 60.396 12.1094C60.396 12.2154 60.396 12.3215 60.396 12.4308C60.5879 12.5368 60.7799 12.6429 60.9777 12.7522C60.9777 12.8582 60.9777 12.9643 60.9777 13.0736C61.0655 13.0895 61.1532 13.1055 61.2436 13.1219C61.6222 13.2566 61.7234 13.3991 61.9594 13.7465C62.3568 14.2901 62.7821 14.6775 63.3008 15.0736C63.676 15.3915 63.9932 15.7527 64.3229 16.127C65.1694 17.0761 66.0235 17.9938 66.9408 18.8589C67.184 19.0889 67.4264 19.32 67.668 19.552C67.779 19.6574 67.89 19.7628 68.0044 19.8715C68.2498 20.1446 68.2498 20.1446 68.2498 20.466C68.3308 20.5057 68.4118 20.5455 68.4952 20.5865C69.1898 21.0013 69.7536 21.5951 70.286 22.2337C70.286 22.3398 70.286 22.4458 70.286 22.5551C70.372 22.5968 70.4581 22.6384 70.5467 22.6813C72.1901 23.6808 73.3592 26.516 73.8856 28.4308C74.8073 31.9969 74.4349 36.0898 72.8675 39.3487C72.7354 39.5905 72.6022 39.8317 72.4676 40.0718C72.3685 40.2849 72.2708 40.4988 72.1767 40.7146C72.0807 40.7146 71.9847 40.7146 71.8858 40.7146C71.8569 40.8253 71.8281 40.9359 71.7983 41.0499C71.5221 41.6859 71.1235 42.097 70.6677 42.5828C70.5838 42.6748 70.4998 42.7668 70.4132 42.8615C69.2813 44.0894 69.2813 44.0894 68.8316 44.0894C68.8316 44.1955 68.8316 44.3016 68.8316 44.4108C68.635 44.5354 68.4379 44.6591 68.2407 44.7825C68.131 44.8514 68.0213 44.9204 67.9083 44.9915C65.8931 46.1557 63.7487 46.7505 61.4777 46.7511C61.324 46.7514 61.1703 46.7518 61.0119 46.7521C59.3636 46.714 57.8442 46.2147 56.3236 45.5358C56.2289 45.4937 56.1342 45.4517 56.0367 45.4083C55.3283 45.0544 54.7032 44.5616 54.0693 44.0693C53.9767 43.9979 53.8841 43.9266 53.7887 43.853C53.5614 43.6724 53.3418 43.4801 53.1239 43.2859C53.1239 43.1798 53.1239 43.0738 53.1239 42.9645C53.0412 42.927 52.9585 42.8895 52.8733 42.8509C51.5984 42.0511 50.595 40.25 50.0696 38.7862C50.0002 38.6255 50.0002 38.6255 49.9293 38.4617C48.6242 35.4416 48.5688 31.7711 49.2615 28.5556C49.3578 28.1085 49.4489 27.6602 49.5401 27.2118C49.8538 25.6813 50.1812 24.1545 50.5134 22.6288C50.5439 22.4885 50.5745 22.3482 50.6059 22.2036C50.6513 21.9951 50.6513 21.9951 50.6977 21.7824C50.8641 21.0114 51.0159 20.2401 51.1513 19.4616C51.3734 18.1887 51.6549 16.9332 51.9325 15.6739C52.1678 14.6003 52.3771 13.5284 52.5643 12.4433C52.7594 11.3651 53.0077 10.2987 53.2466 9.23145C53.4598 8.27032 53.6432 7.31249 53.7883 6.3358C53.8511 6.00262 53.8511 6.00262 53.9965 5.84192Z" fill="#094374"/>
<path d="M20.9725 23.8608C21.1226 24.0129 21.2712 24.1668 21.4179 24.3228C21.4914 24.3978 21.5648 24.4728 21.6406 24.5501C21.8159 24.7342 21.9816 24.9294 22.1451 25.1264C22.1451 25.2324 22.1451 25.3385 22.1451 25.4478C22.433 25.6069 22.433 25.6069 22.7268 25.7692C22.7268 25.9283 22.7268 26.0874 22.7268 26.2513C22.8228 26.2513 22.9188 26.2513 23.0177 26.2513C24.5015 28.3864 25.403 31.1137 25.4902 33.8044C25.496 33.9639 25.5018 34.1234 25.5078 34.2877C25.5559 36.8822 25.1536 39.251 23.9949 41.5112C23.8258 41.8421 23.6661 42.1791 23.5154 42.5207C23.2693 43.0489 22.9703 43.3579 22.5814 43.768C22.4288 43.9645 22.2774 44.1621 22.1269 44.3606C21.3229 45.3848 20.4091 46.3384 19.3999 47.1127C18.9488 47.4615 18.6042 47.8355 18.2182 48.2677C17.0697 49.4616 15.8771 50.5924 14.6264 51.6538C14.2646 51.9589 14.2646 51.9589 14.0004 52.446C13.8564 52.446 13.7124 52.446 13.564 52.446C13.5258 52.5421 13.4875 52.6383 13.4481 52.7373C13.263 53.1092 13.0938 53.3004 12.8005 53.5709C12.6469 53.7145 12.6469 53.7145 12.4903 53.861C12.3647 53.9774 12.239 54.0938 12.1096 54.2138C11.9432 54.3713 11.7769 54.5291 11.6108 54.6871C10.7281 55.5265 10.7281 55.5265 10.3165 55.9132C10.1525 56.0677 9.98935 56.2233 9.82702 56.38C9.23283 56.9457 9.23283 56.9457 8.90991 56.9457C8.87692 57.0385 8.84392 57.1313 8.80992 57.227C8.56835 57.6845 8.2823 57.9293 7.89182 58.2313C7.79583 58.2313 7.69984 58.2313 7.60094 58.2313C7.55285 58.3684 7.55285 58.3684 7.50379 58.5082C7.2499 58.9878 6.93302 59.246 6.5374 59.5873C6.10333 59.9635 5.70866 60.3223 5.33126 60.7681C4.983 61.124 4.983 61.124 4.40123 61.124C4.04404 59.3573 3.68775 57.5935 3.41734 55.8077C3.23878 54.6543 3.01866 53.5108 2.80138 52.3657C2.56819 51.136 2.33677 49.9083 2.14689 48.6695C1.92471 47.2214 1.64824 45.7864 1.37608 44.3488C1.13836 43.0909 0.91299 41.8319 0.704411 40.5677C0.633349 40.1514 0.553431 39.7407 0.465228 39.3286C-0.382551 35.1329 -0.161782 30.9172 1.88044 27.1722C1.94437 27.0804 2.0083 26.9887 2.07417 26.8941C2.17016 26.8941 2.26615 26.8941 2.36505 26.8941C2.38152 26.7982 2.39798 26.7023 2.41494 26.6034C2.57172 26.0257 2.96907 25.6446 3.33769 25.2168C3.41297 25.1268 3.48824 25.0367 3.5658 24.944C4.81108 23.4755 4.81108 23.4755 5.56476 23.1979C5.71179 23.039 5.8571 22.8781 6.00109 22.7158C10.3865 19.4644 16.9873 20.1597 20.9725 23.8608Z" fill="#094374"/>
<path d="M29.9989 54.053C29.9989 54.1591 29.9989 54.2651 29.9989 54.3744C30.1044 54.4159 30.21 54.4573 30.3187 54.5C30.7436 54.7043 31.0619 54.9433 31.426 55.2583C31.5409 55.3561 31.6559 55.4538 31.7743 55.5546C31.8603 55.6424 31.9464 55.7303 32.0351 55.8208C32.0351 55.9268 32.0351 56.0329 32.0351 56.1422C32.1602 56.1965 32.1602 56.1965 32.2879 56.252C33.954 57.3235 35.0531 60.4781 35.6978 62.382C35.8171 62.7328 35.9499 63.0724 36.0892 63.414C37.1319 65.9777 37.1319 65.9777 37.4891 67.0801C37.7366 67.8358 38.0572 68.5548 38.3652 69.2822C38.6008 69.8525 38.8107 70.4297 39.0168 71.0135C39.1753 71.4462 39.3485 71.869 39.5253 72.2929C39.8145 72.9869 40.0776 73.6874 40.3303 74.3984C40.4664 74.7723 40.6116 75.1396 40.7615 75.507C40.9646 76.0046 41.1536 76.5055 41.3342 77.0136C41.5922 77.7351 41.8793 78.4382 42.1728 79.1429C42.4949 79.9319 42.7925 80.7321 43.0886 81.5334C43.1435 81.6713 43.1985 81.8093 43.2551 81.9514C43.3795 82.3369 43.3795 82.3369 43.3795 82.9797C42.4252 82.9131 41.4801 82.8261 40.5343 82.6683C39.7114 82.5315 38.8899 82.4327 38.0618 82.3469C36.9132 82.227 35.7757 82.0604 34.6348 81.8721C33.6229 81.708 32.6103 81.5903 31.5922 81.485C30.9383 81.4162 30.2927 81.3309 29.6444 81.212C28.8404 81.0654 28.0375 80.9797 27.2264 80.9006C26.0557 80.786 24.9002 80.619 23.7399 80.4134C23.0758 80.2978 22.4267 80.2198 21.7542 80.1875C19.3217 80.0113 17.0802 78.7995 15.1639 77.1944C15.0802 77.125 14.9966 77.0556 14.9105 76.9841C14.3463 76.4915 13.8354 75.9144 13.4186 75.2659C13.4186 75.1598 13.4186 75.0538 13.4186 74.9445C13.2746 74.8915 13.1306 74.8384 12.9822 74.7838C12.8084 74.5403 12.8084 74.5403 12.6419 74.227C12.5806 74.1125 12.5193 73.998 12.4562 73.8801C12.3928 73.7574 12.3294 73.6346 12.2641 73.5082C12.1664 73.3204 12.1664 73.3204 12.0667 73.1288C10.3944 69.8688 9.97444 65.9766 10.8442 62.3362C11.224 60.8747 11.717 59.4612 12.5459 58.2313C12.6419 58.2313 12.7379 58.2313 12.8368 58.2313C12.8535 58.1353 12.8702 58.0392 12.8873 57.9403C13.0417 57.3683 13.4275 56.9886 13.7913 56.564C13.8698 56.4713 13.9483 56.3785 14.0292 56.283C14.5928 55.6289 15.1727 54.9809 15.8911 54.5351C15.9871 54.5351 16.0831 54.5351 16.182 54.5351C16.182 54.4291 16.182 54.323 16.182 54.2137C20.6002 51.3144 25.5105 51.5206 29.9989 54.053Z" fill="#094374"/>
<path d="M74.2131 48.7499C74.1737 48.8363 74.1342 48.9227 74.0936 49.0117C74.0415 49.126 73.9895 49.2404 73.9359 49.3582C73.8844 49.4711 73.833 49.584 73.7799 49.7003C73.5677 50.1792 73.3823 50.6691 73.1951 51.1604C73.0516 51.5205 72.9067 51.8797 72.7616 52.2389C72.6696 52.4671 72.5782 52.6955 72.4877 52.9244C72.1397 53.802 71.7688 54.6671 71.397 55.5325C71.0416 56.365 70.6964 57.2022 70.355 58.0418C70.2873 58.2081 70.2873 58.2081 70.2183 58.3778C69.9899 58.9393 69.7622 59.5011 69.5352 60.0632C69.4498 60.2737 69.3644 60.4842 69.2789 60.6947C69.2033 60.8818 69.1277 61.0689 69.0498 61.2617C68.8529 61.718 68.6339 62.1397 68.3955 62.5704C68.2884 62.8381 68.1817 63.106 68.08 63.3762C67.429 65.096 66.7187 66.7918 65.9525 68.4524C65.7275 68.9481 65.5336 69.4506 65.3412 69.9628C64.9579 70.964 64.5239 71.9137 64.0323 72.8554C63.9363 72.8554 63.8403 72.8554 63.7414 72.8554C63.6919 73.0294 63.6919 73.0294 63.6414 73.207C63.4079 73.7597 63.1275 74.045 62.7233 74.4625C62.529 74.6797 62.3351 74.8974 62.1415 75.1153C60.9827 76.3909 60.9827 76.3909 60.3962 76.3909C60.3962 76.497 60.3962 76.6031 60.3962 76.7123C57.6838 78.2793 55.4573 78.869 52.4021 78.8074C52.1578 78.8025 51.9135 78.8004 51.6692 78.799C49.9779 78.7191 48.126 77.9014 46.7247 76.873C46.6002 76.7827 46.4758 76.6924 46.3475 76.5993C45.3002 75.7997 44.3613 74.8813 43.525 73.8197C43.525 73.7136 43.525 73.6075 43.525 73.4983C43.429 73.4983 43.333 73.4983 43.2341 73.4983C43.0809 73.2358 42.9381 72.9659 42.7978 72.6947C42.733 72.5951 42.6681 72.4954 42.6013 72.3928C40.9686 69.8811 40.2692 66.2718 40.6986 63.217C41.065 60.8685 41.7213 58.8471 42.7978 56.7851C42.8938 56.7851 42.9898 56.7851 43.0887 56.7851C43.1249 56.6684 43.1611 56.5518 43.1984 56.4316C43.7792 54.9891 45.098 53.8938 46.2884 53.0889C46.3844 53.0889 46.4804 53.0889 46.5793 53.0889C46.5793 52.9828 46.5793 52.8767 46.5793 52.7675C46.8783 52.5911 47.1783 52.4176 47.4792 52.2452C47.6463 52.1482 47.8133 52.0513 47.9854 51.9514C49.8105 51.0124 51.6728 50.8003 53.6514 50.5779C53.945 50.5434 54.2386 50.5088 54.5322 50.4741C56.4109 50.255 58.2896 50.0761 60.1747 49.9382C60.9875 49.8776 61.794 49.7806 62.6027 49.6734C63.6952 49.5325 64.7912 49.4512 65.8882 49.3645C67.0618 49.2681 68.2271 49.1267 69.3954 48.9708C71.0091 48.7581 72.5896 48.6946 74.2131 48.7499Z" fill="#094374"/>
<path d="M37.7076 32.8401C37.8516 32.8931 37.9956 32.9462 38.1439 33.0008C38.2934 33.3795 38.4173 33.745 38.5348 34.1358C38.8453 35.108 39.1967 36.0371 39.6165 36.9581C39.6637 37.0625 39.7109 37.167 39.7595 37.2745C41.1191 40.2139 43.6733 41.7946 46.4341 42.8037C46.7723 42.9185 47.1102 43.0244 47.4522 43.1251C47.4522 43.2842 47.4522 43.4433 47.4522 43.6072C47.3325 43.6508 47.3325 43.6508 47.2105 43.6952C43.5736 45.0301 41.0651 46.6269 39.3074 50.4673C39.2566 50.5781 39.2058 50.689 39.1534 50.8032C38.7781 51.6407 38.4982 52.482 38.2729 53.3844C38.2303 53.499 38.1878 53.6136 38.1439 53.7316C37.9999 53.7846 37.8559 53.8376 37.7076 53.8923C37.6392 53.6965 37.5707 53.5008 37.5002 53.2991C37.4088 53.0381 37.3173 52.7772 37.2258 52.5163C37.1809 52.3877 37.136 52.2592 37.0897 52.1267C35.8196 48.5075 34.1151 46.2069 30.8718 44.5715C30.0125 44.153 29.1707 43.8324 28.2539 43.6072C28.2539 43.4481 28.2539 43.289 28.2539 43.1251C28.5284 43.0456 28.5284 43.0456 28.8084 42.9644C31.8623 41.9372 34.4378 40.4107 36.0646 37.2507C36.7409 35.8416 37.2099 34.3341 37.7076 32.8401Z" fill="#0F4778"/>
</svg>
