<svg width="327" height="83" viewBox="0 0 327 83" fill="none" xmlns="http://www.w3.org/2000/svg">
<g clip-path="url(#clip0_1129_9118)">
<path d="M43.8157 2.46714C43.8157 2.5732 43.8157 2.67927 43.8157 2.78855C43.9223 2.82956 44.029 2.87058 44.1389 2.91284C45.1542 3.40824 45.915 4.40738 46.537 5.3981C46.7182 5.69051 46.7182 5.69051 46.9665 5.92917C47.1608 6.16332 47.1608 6.16332 47.1608 6.64544C47.2568 6.64544 47.3528 6.64544 47.4517 6.64544C49.1285 10.1167 49.9047 14.1484 48.897 18.0353C48.4459 19.6372 47.7669 21.2012 46.8699 22.5551C46.7739 22.5551 46.678 22.5551 46.5791 22.5551C46.4831 22.8203 46.3871 23.0854 46.2882 23.3586C46.1922 23.3586 46.0962 23.3586 45.9973 23.3586C45.9408 23.5025 45.9408 23.5025 45.8831 23.6493C45.6933 24.0276 45.5094 24.2237 45.2065 24.4936C44.9543 24.7204 44.7103 24.941 44.4823 25.1973C42.3014 27.5686 38.9831 28.2618 36.0544 28.248C34.1508 28.1959 32.4151 27.724 30.726 26.7334C30.6131 26.6688 30.5002 26.6041 30.3839 26.5376C29.6955 26.1298 29.0517 25.6656 28.4063 25.1804C28.0929 24.946 28.0929 24.946 27.6717 24.7246C27.2857 24.5114 26.9542 24.28 26.5991 24.0115C26.0082 23.567 25.4088 23.2139 24.7629 22.8765C24.7629 22.7705 24.7629 22.6644 24.7629 22.5551C24.5709 22.5551 24.3789 22.5551 24.1811 22.5551C24.1811 22.449 24.1811 22.343 24.1811 22.2337C24.0553 22.1927 23.9295 22.1517 23.7999 22.1094C23.2901 21.905 22.884 21.6504 22.4267 21.3297C22.2606 21.2144 22.0945 21.0991 21.9285 20.9839C21.802 20.8953 21.802 20.8953 21.673 20.805C20.5398 20.0133 19.3993 19.2391 18.218 18.5375C18.218 18.4315 18.218 18.3254 18.218 18.2161C18.0659 18.1947 18.0659 18.1947 17.9106 18.1728C17.3965 18.029 17.0374 17.7783 16.5909 17.4628C16.4222 17.3449 16.2535 17.2271 16.0847 17.1094C15.9247 16.9973 15.7648 16.8852 15.6001 16.7698C15.3582 16.608 15.1159 16.4472 14.8728 16.2877C14.303 15.9117 13.7375 15.5283 13.173 15.1427C12.5339 14.707 11.8925 14.2815 11.2368 13.8771C11.3905 13.3847 11.5099 13.2455 11.9277 12.9832C12.0836 12.907 12.2396 12.8307 12.4003 12.7522C12.5563 12.6627 12.7123 12.5732 12.873 12.481C13.273 12.2701 13.273 12.2701 13.5639 12.2701C13.5639 12.164 13.5639 12.0579 13.5639 11.9487C13.7199 11.8658 13.8758 11.7829 14.0366 11.6976C14.8718 11.2369 15.6694 10.7054 16.4727 10.1809C17.0427 9.80877 17.6028 9.48859 18.218 9.2167C18.559 9.00516 18.8979 8.79076 19.2361 8.57388C22.2976 6.61852 22.2976 6.61852 23.7033 5.86703C24.062 5.67566 24.062 5.67566 24.472 5.35981C25.0363 4.94411 25.6348 4.63334 26.2457 4.30958C26.6118 4.09829 26.9068 3.86505 27.2354 3.59206C27.5055 3.43583 27.7785 3.28559 28.0535 3.14008C28.6198 2.83363 29.1637 2.51436 29.6988 2.14573C34.1244 -0.814641 39.4947 -0.715794 43.8157 2.46714Z" fill="#0A4374"/>
<path d="M53.9965 5.84192C54.5288 6.03795 54.7831 6.36998 55.1601 6.80614C55.8509 7.58552 56.5478 8.34269 57.2974 9.05286C57.8196 9.55851 58.3261 10.083 58.8335 10.6067C59.2186 11.0025 59.6069 11.3832 60.0176 11.7465C60.1424 11.8663 60.2673 11.986 60.396 12.1094C60.396 12.2154 60.396 12.3215 60.396 12.4308C60.5879 12.5368 60.7799 12.6429 60.9777 12.7522C60.9777 12.8582 60.9777 12.9643 60.9777 13.0736C61.0655 13.0895 61.1532 13.1055 61.2436 13.1219C61.6222 13.2566 61.7234 13.3991 61.9594 13.7465C62.3568 14.2901 62.7821 14.6775 63.3008 15.0736C63.676 15.3915 63.9932 15.7527 64.3229 16.127C65.1694 17.0761 66.0235 17.9938 66.9408 18.8589C67.184 19.0889 67.4264 19.32 67.668 19.552C67.779 19.6574 67.89 19.7628 68.0044 19.8715C68.2498 20.1446 68.2498 20.1446 68.2498 20.466C68.3308 20.5057 68.4118 20.5455 68.4952 20.5865C69.1898 21.0013 69.7536 21.5951 70.286 22.2337C70.286 22.3398 70.286 22.4458 70.286 22.5551C70.372 22.5968 70.4581 22.6384 70.5467 22.6813C72.1901 23.6808 73.3592 26.516 73.8856 28.4308C74.8073 31.9969 74.4349 36.0898 72.8675 39.3487C72.7354 39.5905 72.6022 39.8317 72.4676 40.0718C72.3685 40.2849 72.2708 40.4988 72.1767 40.7146C72.0807 40.7146 71.9847 40.7146 71.8858 40.7146C71.8569 40.8253 71.8281 40.9359 71.7983 41.0499C71.5221 41.6859 71.1235 42.097 70.6677 42.5828C70.5838 42.6748 70.4998 42.7668 70.4132 42.8615C69.2813 44.0894 69.2813 44.0894 68.8316 44.0894C68.8316 44.1955 68.8316 44.3016 68.8316 44.4108C68.635 44.5354 68.4379 44.6591 68.2407 44.7825C68.131 44.8514 68.0213 44.9204 67.9083 44.9915C65.8931 46.1557 63.7487 46.7505 61.4777 46.7511C61.324 46.7514 61.1703 46.7518 61.0119 46.7521C59.3636 46.714 57.8442 46.2147 56.3236 45.5358C56.2289 45.4937 56.1342 45.4517 56.0367 45.4083C55.3283 45.0544 54.7032 44.5616 54.0693 44.0693C53.9767 43.9979 53.8841 43.9266 53.7887 43.853C53.5614 43.6724 53.3418 43.4801 53.1239 43.2859C53.1239 43.1798 53.1239 43.0738 53.1239 42.9645C53.0412 42.927 52.9585 42.8895 52.8733 42.8509C51.5984 42.0511 50.595 40.25 50.0696 38.7862C50.0002 38.6255 50.0002 38.6255 49.9293 38.4617C48.6242 35.4416 48.5688 31.7711 49.2615 28.5556C49.3578 28.1085 49.4489 27.6602 49.5401 27.2118C49.8538 25.6813 50.1812 24.1545 50.5134 22.6288C50.5439 22.4885 50.5745 22.3482 50.6059 22.2036C50.6513 21.9951 50.6513 21.9951 50.6977 21.7824C50.8641 21.0114 51.0159 20.2401 51.1513 19.4616C51.3734 18.1887 51.6549 16.9332 51.9325 15.6739C52.1678 14.6003 52.3771 13.5284 52.5643 12.4433C52.7594 11.3651 53.0077 10.2987 53.2466 9.23145C53.4598 8.27032 53.6432 7.31249 53.7883 6.3358C53.8511 6.00262 53.8511 6.00262 53.9965 5.84192Z" fill="#094374"/>
<path d="M20.9725 23.8608C21.1226 24.0129 21.2712 24.1668 21.4179 24.3228C21.4914 24.3978 21.5648 24.4728 21.6406 24.5501C21.8159 24.7342 21.9816 24.9294 22.1451 25.1264C22.1451 25.2324 22.1451 25.3385 22.1451 25.4478C22.433 25.6069 22.433 25.6069 22.7268 25.7692C22.7268 25.9283 22.7268 26.0874 22.7268 26.2513C22.8228 26.2513 22.9188 26.2513 23.0177 26.2513C24.5015 28.3864 25.403 31.1137 25.4902 33.8044C25.496 33.9639 25.5018 34.1234 25.5078 34.2877C25.5559 36.8822 25.1536 39.251 23.9949 41.5112C23.8258 41.8421 23.6661 42.1791 23.5154 42.5207C23.2693 43.0489 22.9703 43.3579 22.5814 43.768C22.4288 43.9645 22.2774 44.1621 22.1269 44.3606C21.3229 45.3848 20.4091 46.3384 19.3999 47.1127C18.9488 47.4615 18.6042 47.8355 18.2182 48.2677C17.0697 49.4616 15.8771 50.5924 14.6264 51.6538C14.2646 51.9589 14.2646 51.9589 14.0004 52.446C13.8564 52.446 13.7124 52.446 13.564 52.446C13.5258 52.5421 13.4875 52.6383 13.4481 52.7373C13.263 53.1092 13.0938 53.3004 12.8005 53.5709C12.6469 53.7145 12.6469 53.7145 12.4903 53.861C12.3647 53.9774 12.239 54.0938 12.1096 54.2138C11.9432 54.3713 11.7769 54.5291 11.6108 54.6871C10.7281 55.5265 10.7281 55.5265 10.3165 55.9132C10.1525 56.0677 9.98935 56.2233 9.82702 56.38C9.23283 56.9457 9.23283 56.9457 8.90991 56.9457C8.87692 57.0385 8.84392 57.1313 8.80992 57.227C8.56835 57.6845 8.2823 57.9293 7.89182 58.2313C7.79583 58.2313 7.69984 58.2313 7.60094 58.2313C7.55285 58.3684 7.55285 58.3684 7.50379 58.5082C7.2499 58.9878 6.93302 59.246 6.5374 59.5873C6.10333 59.9635 5.70866 60.3223 5.33126 60.7681C4.983 61.124 4.983 61.124 4.40123 61.124C4.04404 59.3573 3.68775 57.5935 3.41734 55.8077C3.23878 54.6543 3.01866 53.5108 2.80138 52.3657C2.56819 51.136 2.33677 49.9083 2.14689 48.6695C1.92471 47.2214 1.64824 45.7864 1.37608 44.3488C1.13836 43.0909 0.91299 41.8319 0.704411 40.5677C0.633349 40.1514 0.553431 39.7407 0.465228 39.3286C-0.382551 35.1329 -0.161782 30.9172 1.88044 27.1722C1.94437 27.0804 2.0083 26.9887 2.07417 26.8941C2.17016 26.8941 2.26615 26.8941 2.36505 26.8941C2.38152 26.7982 2.39798 26.7023 2.41494 26.6034C2.57172 26.0257 2.96907 25.6446 3.33769 25.2168C3.41297 25.1268 3.48824 25.0367 3.5658 24.944C4.81108 23.4755 4.81108 23.4755 5.56476 23.1979C5.71179 23.039 5.8571 22.8781 6.00109 22.7158C10.3865 19.4644 16.9873 20.1597 20.9725 23.8608Z" fill="#094374"/>
<path d="M29.9989 54.053C29.9989 54.1591 29.9989 54.2651 29.9989 54.3744C30.1044 54.4159 30.21 54.4573 30.3187 54.5C30.7436 54.7043 31.0619 54.9433 31.426 55.2583C31.5409 55.3561 31.6559 55.4538 31.7743 55.5546C31.8603 55.6424 31.9464 55.7303 32.0351 55.8208C32.0351 55.9268 32.0351 56.0329 32.0351 56.1422C32.1602 56.1965 32.1602 56.1965 32.2879 56.252C33.954 57.3235 35.0531 60.4781 35.6978 62.382C35.8171 62.7328 35.9499 63.0724 36.0892 63.414C37.1319 65.9777 37.1319 65.9777 37.4891 67.0801C37.7366 67.8358 38.0572 68.5548 38.3652 69.2822C38.6008 69.8525 38.8107 70.4297 39.0168 71.0135C39.1753 71.4462 39.3485 71.869 39.5253 72.2929C39.8145 72.9869 40.0776 73.6874 40.3303 74.3984C40.4664 74.7723 40.6116 75.1396 40.7615 75.507C40.9646 76.0046 41.1536 76.5055 41.3342 77.0136C41.5922 77.7351 41.8793 78.4382 42.1728 79.1429C42.4949 79.9319 42.7925 80.7321 43.0886 81.5334C43.1435 81.6713 43.1985 81.8093 43.2551 81.9514C43.3795 82.3369 43.3795 82.3369 43.3795 82.9797C42.4252 82.9131 41.4801 82.8261 40.5343 82.6683C39.7114 82.5315 38.8899 82.4327 38.0618 82.3469C36.9132 82.227 35.7757 82.0604 34.6348 81.8721C33.6229 81.708 32.6103 81.5903 31.5922 81.485C30.9383 81.4162 30.2927 81.3309 29.6444 81.212C28.8404 81.0654 28.0375 80.9797 27.2264 80.9006C26.0557 80.786 24.9002 80.619 23.7399 80.4134C23.0758 80.2978 22.4267 80.2198 21.7542 80.1875C19.3217 80.0113 17.0802 78.7995 15.1639 77.1944C15.0802 77.125 14.9966 77.0556 14.9105 76.9841C14.3463 76.4915 13.8354 75.9144 13.4186 75.2659C13.4186 75.1598 13.4186 75.0538 13.4186 74.9445C13.2746 74.8915 13.1306 74.8384 12.9822 74.7838C12.8084 74.5403 12.8084 74.5403 12.6419 74.227C12.5806 74.1125 12.5193 73.998 12.4562 73.8801C12.3928 73.7574 12.3294 73.6346 12.2641 73.5082C12.1664 73.3204 12.1664 73.3204 12.0667 73.1288C10.3944 69.8688 9.97444 65.9766 10.8442 62.3362C11.224 60.8747 11.717 59.4612 12.5459 58.2313C12.6419 58.2313 12.7379 58.2313 12.8368 58.2313C12.8535 58.1353 12.8702 58.0392 12.8873 57.9403C13.0417 57.3683 13.4275 56.9886 13.7913 56.564C13.8698 56.4713 13.9483 56.3785 14.0292 56.283C14.5928 55.6289 15.1727 54.9809 15.8911 54.5351C15.9871 54.5351 16.0831 54.5351 16.182 54.5351C16.182 54.4291 16.182 54.323 16.182 54.2137C20.6002 51.3144 25.5105 51.5206 29.9989 54.053Z" fill="#094374"/>
<path d="M74.2131 48.7499C74.1737 48.8363 74.1342 48.9227 74.0936 49.0117C74.0415 49.126 73.9895 49.2404 73.9359 49.3582C73.8844 49.4711 73.833 49.584 73.7799 49.7003C73.5677 50.1792 73.3823 50.6691 73.1951 51.1604C73.0516 51.5205 72.9067 51.8797 72.7616 52.2389C72.6696 52.4671 72.5782 52.6955 72.4877 52.9244C72.1397 53.802 71.7688 54.6671 71.397 55.5325C71.0416 56.365 70.6964 57.2022 70.355 58.0418C70.2873 58.2081 70.2873 58.2081 70.2183 58.3778C69.9899 58.9393 69.7622 59.5011 69.5352 60.0632C69.4498 60.2737 69.3644 60.4842 69.2789 60.6947C69.2033 60.8818 69.1277 61.0689 69.0498 61.2617C68.8529 61.718 68.6339 62.1397 68.3955 62.5704C68.2884 62.8381 68.1817 63.106 68.08 63.3762C67.429 65.096 66.7187 66.7918 65.9525 68.4524C65.7275 68.9481 65.5336 69.4506 65.3412 69.9628C64.9579 70.964 64.5239 71.9137 64.0323 72.8554C63.9363 72.8554 63.8403 72.8554 63.7414 72.8554C63.6919 73.0294 63.6919 73.0294 63.6414 73.207C63.4079 73.7597 63.1275 74.045 62.7233 74.4625C62.529 74.6797 62.3351 74.8974 62.1415 75.1153C60.9827 76.3909 60.9827 76.3909 60.3962 76.3909C60.3962 76.497 60.3962 76.6031 60.3962 76.7123C57.6838 78.2793 55.4573 78.869 52.4021 78.8074C52.1578 78.8025 51.9135 78.8004 51.6692 78.799C49.9779 78.7191 48.126 77.9014 46.7247 76.873C46.6002 76.7827 46.4758 76.6924 46.3475 76.5993C45.3002 75.7997 44.3613 74.8813 43.525 73.8197C43.525 73.7136 43.525 73.6075 43.525 73.4983C43.429 73.4983 43.333 73.4983 43.2341 73.4983C43.0809 73.2358 42.9381 72.9659 42.7978 72.6947C42.733 72.5951 42.6681 72.4954 42.6013 72.3928C40.9686 69.8811 40.2692 66.2718 40.6986 63.217C41.065 60.8685 41.7213 58.8471 42.7978 56.7851C42.8938 56.7851 42.9898 56.7851 43.0887 56.7851C43.1249 56.6684 43.1611 56.5518 43.1984 56.4316C43.7792 54.9891 45.098 53.8938 46.2884 53.0889C46.3844 53.0889 46.4804 53.0889 46.5793 53.0889C46.5793 52.9828 46.5793 52.8767 46.5793 52.7675C46.8783 52.5911 47.1783 52.4176 47.4792 52.2452C47.6463 52.1482 47.8133 52.0513 47.9854 51.9514C49.8105 51.0124 51.6728 50.8003 53.6514 50.5779C53.945 50.5434 54.2386 50.5088 54.5322 50.4741C56.4109 50.255 58.2896 50.0761 60.1747 49.9382C60.9875 49.8776 61.794 49.7806 62.6027 49.6734C63.6952 49.5325 64.7912 49.4512 65.8882 49.3645C67.0618 49.2681 68.2271 49.1267 69.3954 48.9708C71.0091 48.7581 72.5896 48.6946 74.2131 48.7499Z" fill="#094374"/>
<path d="M166.834 15.6942C167.986 15.6942 169.138 15.6942 170.324 15.6942C170.324 22.1641 170.324 28.6341 170.324 35.3001C167.796 35.3133 165.267 35.3266 162.661 35.3403C161.866 35.3461 161.071 35.352 160.252 35.358C159.272 35.3609 159.272 35.3609 158.812 35.3614C158.494 35.3624 158.177 35.3647 157.859 35.3679C153.424 35.4115 153.424 35.4115 151.708 33.693C151.573 33.8389 151.438 33.9847 151.299 34.135C149.764 35.5498 147.925 35.3976 146.036 35.3911C145.739 35.3919 145.443 35.393 145.146 35.3941C144.526 35.3958 143.906 35.3951 143.286 35.3927C142.496 35.3899 141.705 35.3937 140.915 35.3994C140.303 35.4029 139.69 35.4027 139.078 35.4013C138.787 35.4012 138.496 35.4023 138.204 35.4047C136.366 35.4174 134.866 35.3249 133.31 34.1149C132.969 33.8105 132.969 33.8105 132.601 33.8939C132.523 33.9337 132.445 33.9735 132.364 34.0144C132.364 34.1205 132.364 34.2266 132.364 34.3359C132.168 34.4373 131.971 34.5375 131.773 34.6372C131.664 34.6931 131.554 34.749 131.441 34.8067C130.473 35.2384 129.653 35.3479 128.616 35.3468C128.477 35.3478 128.338 35.3489 128.195 35.35C127.738 35.3531 127.28 35.3537 126.823 35.3541C126.503 35.3551 126.182 35.3562 125.862 35.3573C125.192 35.3592 124.521 35.3598 123.85 35.3596C122.995 35.3596 122.14 35.364 121.284 35.3695C120.623 35.3731 119.962 35.3738 119.3 35.3736C118.985 35.374 118.67 35.3754 118.355 35.3779C114.151 35.4081 114.151 35.4081 112.439 33.693C112.301 33.8389 112.163 33.9847 112.021 34.135C110.92 35.1668 109.745 35.396 108.338 35.3833C108.104 35.3849 108.104 35.3849 107.865 35.3867C107.355 35.3895 106.844 35.3876 106.334 35.3855C105.976 35.3859 105.619 35.3865 105.262 35.3873C104.516 35.3883 103.769 35.3869 103.023 35.3839C102.068 35.3802 101.112 35.3823 100.157 35.3862C99.4205 35.3885 98.6839 35.3878 97.9472 35.3861C97.595 35.3857 97.2428 35.3862 96.8906 35.3877C96.3981 35.3893 95.9057 35.3868 95.4132 35.3833C95.2687 35.3846 95.1242 35.3859 94.9754 35.3872C94.0474 35.3748 93.4587 35.1817 92.6587 34.6573C92.6707 34.8495 92.6827 35.0417 92.6951 35.2398C92.6825 36.9956 92.2006 38.3915 91.0907 39.641C90.4798 40.2458 89.9577 40.568 89.1772 40.8745C89.0019 40.9447 88.8266 41.0149 88.646 41.0873C88.2035 41.229 87.8781 41.2814 87.4228 41.2461C87.3632 41.0912 87.3036 40.9362 87.2421 40.7766C87.163 40.5715 87.0838 40.3664 87.0047 40.1614C86.9459 40.0085 86.9459 40.0085 86.8859 39.8525C86.7269 39.4412 86.5695 39.0356 86.3763 38.6422C86.2593 38.3535 86.2593 38.3535 86.2593 37.7106C86.3646 37.6833 86.47 37.6559 86.5786 37.6278C87.7421 37.3091 87.7421 37.3091 88.7318 36.5857C89.1682 35.5523 89.186 34.3865 89.198 33.2624C89.1994 33.1447 89.2008 33.027 89.2023 32.9057C89.2069 32.5205 89.2105 32.1353 89.2141 31.7502C89.2171 31.4815 89.2202 31.2129 89.2233 30.9443C89.2313 30.2402 89.2385 29.5362 89.2455 28.8321C89.2528 28.1125 89.2609 27.3929 89.2689 26.6732C89.2845 25.2634 89.2992 23.8536 89.3135 22.4438C90.4174 22.4438 91.5213 22.4438 92.6587 22.4438C92.6608 23.0512 92.6628 23.6585 92.6649 24.2843C92.6694 24.8721 92.6751 25.4597 92.6809 26.0474C92.6843 26.4562 92.6864 26.8649 92.6871 27.2736C92.6885 27.8609 92.6944 28.4479 92.7013 29.0351C92.7007 29.2181 92.7002 29.4011 92.6996 29.5896C92.6987 30.5686 92.6987 30.5686 93.1196 31.3928C93.9674 31.8274 94.8548 31.7885 95.7709 31.7879C95.9058 31.7885 96.0407 31.789 96.1797 31.7896C96.6241 31.7911 97.0684 31.7914 97.5128 31.7916C97.8225 31.7921 98.1322 31.7926 98.4419 31.7932C99.0904 31.7942 99.7388 31.7945 100.387 31.7944C101.218 31.7944 102.048 31.7966 102.878 31.7993C103.518 31.8011 104.157 31.8014 104.796 31.8013C105.103 31.8015 105.409 31.8022 105.715 31.8035C106.143 31.8051 106.571 31.8046 106.999 31.8036C107.125 31.8045 107.252 31.8054 107.381 31.8064C108.054 31.8025 108.614 31.7528 109.239 31.4432C109.287 31.3371 109.335 31.2311 109.384 31.1218C109.48 31.1218 109.576 31.1218 109.675 31.1218C109.951 30.0865 110.015 29.1344 110.026 28.0584C110.029 27.8925 110.032 27.7267 110.035 27.5559C110.044 27.0303 110.05 26.5048 110.057 25.9793C110.063 25.6212 110.068 25.2632 110.074 24.9052C110.088 24.0312 110.1 23.1572 110.112 22.2831C111.264 22.2831 112.415 22.2831 113.602 22.2831C113.602 25.1468 113.602 28.0106 113.602 30.9611C113.698 31.0141 113.794 31.0671 113.893 31.1218C113.893 31.2278 113.893 31.3339 113.893 31.4432C115.089 31.7328 116.24 31.8181 117.463 31.8311C117.705 31.8354 117.705 31.8354 117.952 31.8397C118.547 31.8498 119.143 31.8573 119.738 31.865C121.073 31.8849 122.408 31.9048 123.783 31.9253C123.783 28.8494 123.783 25.7736 123.783 22.6045C125.066 22.3468 126.219 22.2134 127.505 22.2059C127.826 22.2027 128.148 22.1927 128.469 22.1826C129.961 22.1589 131.039 22.476 132.364 23.2473C132.364 23.3534 132.364 23.4594 132.364 23.5687C132.528 23.6249 132.528 23.6249 132.695 23.6823C133.522 24.1157 134.016 25.2085 134.382 26.1098C134.678 27.0349 134.718 27.8802 134.718 28.8518C134.72 28.9768 134.722 29.1017 134.724 29.2304C134.726 30.0301 134.632 30.6849 134.4 31.4432C135.259 31.6864 136.056 31.8116 136.941 31.8062C137.057 31.8067 137.172 31.8073 137.291 31.8079C137.667 31.8093 138.044 31.8084 138.42 31.8073C138.684 31.8075 138.948 31.8078 139.212 31.8082C139.762 31.8087 140.313 31.808 140.864 31.8065C141.569 31.8047 142.274 31.8057 142.979 31.8076C143.522 31.8088 144.066 31.8084 144.61 31.8076C144.87 31.8074 145.13 31.8077 145.39 31.8084C145.753 31.8092 146.116 31.808 146.479 31.8062C146.639 31.8072 146.639 31.8072 146.803 31.8082C147.386 31.8028 147.844 31.7463 148.363 31.4432C148.943 30.7468 149.268 30.1671 149.282 29.2158C149.285 29.0614 149.288 28.907 149.29 28.7479C149.292 28.5825 149.294 28.4171 149.296 28.2467C149.298 28.0764 149.301 27.9061 149.304 27.7306C149.313 27.187 149.32 26.6434 149.326 26.0998C149.332 25.7311 149.337 25.3624 149.343 24.9937C149.358 24.0902 149.369 23.1867 149.381 22.2831C150.533 22.2831 151.685 22.2831 152.871 22.2831C152.875 22.9155 152.879 23.548 152.883 24.1996C152.888 24.8107 152.895 25.4218 152.902 26.0329C152.906 26.4583 152.909 26.8837 152.911 27.3091C152.914 27.9199 152.921 28.5305 152.928 29.1412C152.928 29.4275 152.928 29.4275 152.929 29.7196C152.932 29.8965 152.934 30.0734 152.937 30.2557C152.939 30.4116 152.94 30.5676 152.941 30.7283C152.989 31.1325 152.989 31.1325 153.24 31.4069C154.073 31.8642 155.089 31.7898 156.002 31.7976C156.122 31.7992 156.242 31.8008 156.365 31.8025C156.749 31.8075 157.133 31.8115 157.516 31.8154C157.755 31.8184 157.993 31.8214 158.232 31.8245C159.112 31.8355 159.991 31.8452 160.871 31.855C162.838 31.8782 164.806 31.9014 166.834 31.9253C166.834 26.569 166.834 21.2128 166.834 15.6942ZM127.128 25.6579C127.128 27.7261 127.128 29.7944 127.128 31.9253C128.848 32.0592 128.848 32.0592 130.319 31.3528C130.944 30.6619 131.187 30.0905 131.211 29.1149C131.207 28.9817 131.204 28.8485 131.201 28.7112C131.2 28.5238 131.2 28.5238 131.2 28.3327C131.156 27.4004 130.896 26.6769 130.328 25.9793C129.41 25.3165 128.161 25.2775 127.128 25.6579Z" fill="#134A7A"/>
<path d="M197.705 22.2048C198.04 22.2128 198.376 22.2147 198.712 22.2156C198.93 22.2178 199.149 22.2204 199.368 22.2234C199.466 22.2243 199.563 22.2251 199.664 22.226C200.544 22.2495 201.279 22.4242 202.176 22.6045C202.176 25.6803 202.176 28.7562 202.176 31.9253C206.784 31.9253 211.392 31.9253 216.139 31.9253C216.139 28.7964 216.139 25.6675 216.139 22.4438C217.291 22.4438 218.443 22.4438 219.629 22.4438C219.629 26.6863 219.629 30.9289 219.629 35.3001C213.87 35.3001 208.11 35.3001 202.176 35.3001C202.176 36.785 202.176 38.2699 202.176 39.7998C200.609 39.8107 199.041 39.8195 197.473 39.8248C196.745 39.8273 196.017 39.8307 195.289 39.8361C194.585 39.8414 193.882 39.8443 193.178 39.8455C192.911 39.8464 192.643 39.8481 192.376 39.8507C189.706 39.8758 189.706 39.8758 188.505 39.3177C188.355 39.2547 188.205 39.1917 188.05 39.1268C186.89 38.3187 186.14 37.2352 185.742 35.7822C185.523 34.3464 185.58 32.8846 185.587 31.4331C185.588 31.1687 185.588 30.9044 185.589 30.64C185.59 29.997 185.593 29.3541 185.596 28.7112C186.748 28.7112 187.9 28.7112 189.087 28.7112C189.089 29.1023 189.091 29.4934 189.093 29.8964C189.097 30.2789 189.103 30.6613 189.109 31.0437C189.112 31.3077 189.114 31.5717 189.115 31.8358C189.051 33.7171 189.051 33.7171 189.715 35.3699C190.642 36.3239 191.818 36.3608 193.019 36.3622C193.163 36.3647 193.308 36.3672 193.457 36.3698C193.991 36.3782 194.525 36.3812 195.059 36.3848C196.854 36.4047 196.854 36.4047 198.686 36.425C198.686 32.8718 198.686 29.3187 198.686 25.6578C196.926 25.4996 196.926 25.4996 195.552 26.2165C194.894 26.9789 194.875 27.6951 194.85 28.7112C194.873 29.7834 194.938 30.5143 195.645 31.2988C196.19 31.6919 196.639 31.7443 197.277 31.8048C197.385 31.8172 197.492 31.8296 197.603 31.8424C197.867 31.8725 198.131 31.8992 198.395 31.9253C198.206 33.1786 197.774 34.185 197.231 35.3001C195.868 35.4225 194.499 35.2166 193.398 34.2605C192.208 33.1293 191.263 31.7804 191.093 30.007C190.958 27.9249 191.153 25.9974 192.432 24.3521C193.972 22.5883 195.565 22.1532 197.705 22.2048Z" fill="#144B7A"/>
<path d="M322.02 21.3188C323.172 21.3188 324.324 21.3188 325.51 21.3188C325.51 25.9327 325.51 30.5465 325.51 35.3001C323.945 35.32 323.945 35.32 322.347 35.3403C322.021 35.3461 321.696 35.352 321.36 35.358C318.18 35.3913 318.18 35.3913 316.748 34.2957C316.664 34.2029 316.58 34.1101 316.493 34.0144C316.061 34.183 315.726 34.3664 315.348 34.6573C314.311 35.3905 313.284 35.3478 312.087 35.3468C311.82 35.3484 311.82 35.3484 311.548 35.35C311.062 35.3526 310.576 35.3536 310.09 35.3538C309.786 35.3541 309.481 35.3548 309.177 35.3556C308.114 35.3586 307.05 35.3599 305.987 35.3596C304.998 35.3594 304.01 35.3628 303.022 35.3679C302.171 35.3721 301.32 35.3738 300.469 35.3736C299.962 35.3735 299.455 35.3744 298.948 35.3779C298.381 35.3816 297.815 35.3801 297.249 35.3782C297.083 35.38 296.917 35.3818 296.746 35.3836C295.698 35.3746 294.891 35.1695 293.95 34.6573C293.948 34.8242 293.946 34.9912 293.943 35.1632C293.896 37.0159 293.574 38.4468 292.35 39.7998C292.206 39.7998 292.062 39.7998 291.914 39.7998C291.914 39.9058 291.914 40.0119 291.914 40.1212C290.851 40.7399 289.937 41.2714 288.714 41.2461C288.546 40.8079 288.38 40.3693 288.214 39.9304C288.167 39.8068 288.119 39.6832 288.07 39.5559C287.84 38.9442 287.635 38.3715 287.55 37.7106C287.668 37.6852 287.785 37.6597 287.907 37.6334C289.132 37.3512 289.132 37.3512 290.023 36.425C290.436 35.6638 290.524 35.0269 290.522 34.1564C290.523 34.0293 290.525 33.9022 290.526 33.7712C290.531 33.3539 290.532 32.9365 290.534 32.5191C290.536 32.2287 290.539 31.9382 290.541 31.6477C290.548 30.8853 290.553 30.1229 290.556 29.3604C290.561 28.5815 290.568 27.8027 290.574 27.0238C290.587 25.4972 290.596 23.9705 290.605 22.4438C291.708 22.4438 292.812 22.4438 293.95 22.4438C293.952 22.7001 293.954 22.9564 293.956 23.2205C293.965 24.1688 293.976 25.1169 293.988 26.0651C293.993 26.476 293.997 26.8869 294 27.2978C294.005 27.8875 294.013 28.477 294.021 29.0665C294.022 29.2512 294.023 29.4358 294.024 29.6261C294.028 29.8818 294.028 29.8818 294.032 30.1427C294.035 30.3686 294.035 30.3686 294.037 30.5991C294.066 30.7783 294.066 30.7783 294.095 30.9611C294.239 31.0671 294.383 31.1732 294.531 31.2825C294.531 31.3885 294.531 31.4946 294.531 31.6039C295.325 31.7264 296.095 31.7905 296.895 31.7976C297.066 31.8 297.066 31.8 297.24 31.8024C297.611 31.8074 297.982 31.8115 298.354 31.8154C298.613 31.8188 298.872 31.8221 299.131 31.8256C299.81 31.8344 300.49 31.8424 301.169 31.8501C301.985 31.8597 302.801 31.8703 303.618 31.8807C304.855 31.8964 306.093 31.9107 307.33 31.9253C307.33 28.7964 307.33 25.6675 307.33 22.4438C308.482 22.4438 309.634 22.4438 310.821 22.4438C310.821 25.5727 310.821 28.7016 310.821 31.9253C312.831 31.854 312.831 31.854 313.484 31.1419C313.565 30.9761 313.646 30.8104 313.73 30.6397C313.782 30.5391 313.834 30.4384 313.888 30.3348C314.042 29.9437 314.061 29.6561 314.067 29.2305C314.07 29.0794 314.073 28.9282 314.076 28.7724C314.077 28.6105 314.079 28.4486 314.081 28.2818C314.084 28.1151 314.086 27.9484 314.089 27.7766C314.098 27.2444 314.105 26.7123 314.112 26.1801C314.117 25.8192 314.123 25.4582 314.129 25.0973C314.143 24.2128 314.154 23.3283 314.166 22.4438C315.318 22.4438 316.47 22.4438 317.657 22.4438C317.662 23.2825 317.662 23.2825 317.668 24.1381C317.674 24.6801 317.68 25.222 317.687 25.764C317.691 26.1404 317.694 26.5169 317.696 26.8933C317.699 27.4347 317.706 27.9759 317.713 28.5172C317.714 28.7694 317.714 28.7694 317.714 29.0266C317.731 29.957 317.731 29.957 318.053 30.8025C319.343 32.0478 319.954 31.697 322.02 31.9253C322.02 28.4252 322.02 24.925 322.02 21.3188Z" fill="#134A79"/>
<path d="M280.246 15.6759C280.421 15.6767 280.597 15.6776 280.779 15.6785C280.969 15.679 281.158 15.6795 281.354 15.68C281.556 15.6814 281.758 15.6827 281.96 15.6841C282.162 15.6849 282.365 15.6856 282.567 15.6863C283.065 15.6882 283.562 15.6909 284.06 15.6941C283.86 16.0959 283.86 16.0959 283.623 16.4977C283.527 16.4977 283.431 16.4977 283.332 16.4977C283.283 16.6319 283.283 16.6319 283.232 16.7689C282.987 17.2468 282.683 17.5776 282.314 17.944C282.218 17.944 282.122 17.944 282.023 17.944C281.969 18.0782 281.969 18.0782 281.914 18.2152C281.59 18.878 281.181 19.3743 280.66 19.8524C280.303 20.1796 280 20.5111 279.705 20.907C279.305 21.4437 278.858 21.8877 278.377 22.3351C278.075 22.6249 277.796 22.9335 277.515 23.2472C277.711 23.252 277.711 23.252 277.912 23.2569C278.408 23.2696 278.904 23.2835 279.399 23.2982C279.612 23.3043 279.825 23.3099 280.038 23.315C284.381 23.4204 284.381 23.4204 285.965 24.9974C286.872 26.0784 287.348 27.1767 287.387 28.6509C287.393 28.8397 287.393 28.8397 287.4 29.0324C287.454 31.266 287.012 33.312 286.096 35.3C283.276 35.3151 280.457 35.3264 277.638 35.3333C276.329 35.3366 275.019 35.3411 273.71 35.3485C272.569 35.3549 271.427 35.3591 270.286 35.3605C269.682 35.3613 269.078 35.3633 268.474 35.368C267.904 35.3724 267.335 35.3737 266.765 35.3727C266.557 35.3729 266.349 35.3742 266.141 35.3766C264.733 35.3926 263.525 35.2961 262.407 34.2755C262.305 34.1363 262.203 33.9971 262.098 33.8537C261.996 33.7178 261.894 33.5819 261.789 33.4419C260.974 31.792 261.024 30.0108 261.053 28.1889C261.055 27.9422 261.057 27.6955 261.059 27.4488C261.063 26.8517 261.071 26.2548 261.08 25.6578C260.755 25.6518 260.429 25.6475 260.104 25.644C259.923 25.6414 259.742 25.6388 259.555 25.6362C258.879 25.6647 258.373 25.7714 257.88 26.3006C257.28 27.3225 257.156 28.4826 257.298 29.6754C257.393 29.9443 257.49 30.2123 257.589 30.4789C257.589 30.638 257.589 30.7971 257.589 30.961C257.676 31.0074 257.763 31.0538 257.853 31.1016C258.171 31.2824 258.171 31.2824 258.607 31.6038C258.887 31.6764 258.887 31.6764 259.191 31.7055C259.356 31.7257 259.356 31.7257 259.525 31.7463C259.639 31.759 259.753 31.7716 259.871 31.7846C260.045 31.8054 260.045 31.8054 260.222 31.8267C260.508 31.8607 260.794 31.8931 261.08 31.9252C261.007 32.6597 260.896 33.2324 260.58 33.8838C260.517 34.0154 260.454 34.1469 260.39 34.2824C260.329 34.4061 260.269 34.5298 260.207 34.6572C260.11 34.8711 260.012 35.0852 259.916 35.3C258.123 35.4429 256.659 35.0011 255.28 33.7087C253.953 32.2586 253.595 30.876 253.581 28.8518C253.579 28.687 253.576 28.5223 253.574 28.3525C253.587 27.261 253.766 26.4513 254.244 25.4971C254.312 25.3572 254.381 25.2174 254.451 25.0733C255.274 23.6696 256.432 22.7779 257.88 22.283C258.609 22.1684 259.345 22.1871 260.08 22.2047C260.415 22.2127 260.75 22.2146 261.086 22.2155C262.323 22.2261 263.5 22.3337 264.716 22.6044C264.715 22.6962 264.714 22.788 264.713 22.8825C264.703 23.8419 264.697 24.8013 264.692 25.7608C264.69 26.1184 264.687 26.4759 264.683 26.8335C264.678 27.3489 264.675 27.8643 264.673 28.3797C264.671 28.5383 264.669 28.6969 264.667 28.8602C264.666 29.8298 264.742 30.5761 265.152 31.4431C265.655 31.7342 266.073 31.8045 266.635 31.8032C266.784 31.8036 266.933 31.8041 267.087 31.8045C267.33 31.8028 267.33 31.8028 267.578 31.801C267.749 31.8011 267.921 31.8011 268.098 31.8012C268.568 31.801 269.037 31.7994 269.507 31.7971C269.998 31.7951 270.489 31.7949 270.981 31.7945C271.91 31.7935 272.84 31.7909 273.77 31.7877C274.829 31.7841 275.887 31.7823 276.946 31.7807C279.123 31.7773 281.301 31.7717 283.478 31.7645C283.844 30.6064 284.057 29.2164 283.56 28.0583C282.872 27.1878 282.017 26.9353 281.005 26.7827C280.521 26.7522 280.037 26.7417 279.552 26.7319C279.346 26.7269 279.346 26.7269 279.135 26.7217C278.698 26.7113 278.261 26.7018 277.824 26.6923C277.527 26.6854 277.229 26.6784 276.932 26.6713C276.205 26.6541 275.478 26.6378 274.751 26.622C274.703 26.5142 274.655 26.4063 274.605 26.2952C274.54 26.1524 274.476 26.0096 274.41 25.8624C274.347 25.7214 274.283 25.5804 274.218 25.4352C274.096 25.1697 273.969 24.9066 273.837 24.6469C273.67 24.3119 273.67 24.3119 273.442 23.7293C273.582 23.3002 273.651 23.132 274.024 22.9258C274.078 22.7866 274.078 22.7866 274.133 22.6446C274.343 22.2269 274.613 22.0104 274.949 21.718C275.301 21.3664 275.559 20.9546 275.829 20.5253C276.119 20.1097 276.449 19.7587 276.788 19.3903C277.085 19.0455 277.377 18.6958 277.669 18.3458C277.782 18.2118 277.782 18.2118 277.897 18.0752C278.235 17.6711 278.555 17.27 278.86 16.8341C278.944 16.7231 279.028 16.6121 279.115 16.4977C279.211 16.4977 279.307 16.4977 279.406 16.4977C279.451 16.3949 279.496 16.2922 279.542 16.1863C279.77 15.6974 279.77 15.6974 280.246 15.6759Z" fill="#124A79"/>
<path d="M223.411 22.4437C224.563 22.4437 225.715 22.4437 226.901 22.4437C226.903 23.0511 226.905 23.6585 226.908 24.2843C226.912 24.872 226.918 25.4597 226.923 26.0474C226.927 26.4561 226.929 26.8648 226.93 27.2736C226.931 27.8608 226.937 28.4479 226.944 29.0351C226.943 29.2181 226.943 29.4011 226.942 29.5896C226.94 30.5724 226.94 30.5724 227.371 31.3928C228.201 31.8275 229.032 31.7914 229.932 31.7975C230.147 31.7999 230.147 31.7999 230.367 31.8024C230.84 31.8074 231.313 31.8114 231.786 31.8154C232.114 31.8187 232.442 31.8221 232.77 31.8255C233.634 31.8344 234.497 31.8423 235.361 31.8501C236.397 31.8596 237.433 31.8702 238.47 31.8807C240.043 31.8964 241.617 31.9107 243.191 31.9253C243.191 28.7963 243.191 25.6674 243.191 22.4437C244.295 22.4437 245.399 22.4437 246.536 22.4437C246.536 26.6863 246.536 30.9289 246.536 35.3C242.051 35.3258 242.051 35.3258 239.831 35.3323C238.631 35.3359 237.432 35.3404 236.233 35.3485C235.283 35.355 234.333 35.3591 233.384 35.3605C232.881 35.3613 232.379 35.3633 231.876 35.368C231.314 35.3732 230.752 35.3733 230.19 35.373C230.025 35.3753 229.86 35.3776 229.69 35.38C228.645 35.374 227.841 35.1685 226.901 34.6572C226.893 34.778 226.885 34.8989 226.877 35.0233C226.739 36.9932 226.467 38.4021 225.165 39.8299C224.225 40.7148 222.914 41.3291 221.665 41.2461C220.356 38.3955 220.356 38.3955 220.356 37.7106C220.472 37.6851 220.588 37.6596 220.708 37.6334C221.749 37.38 222.514 37.1716 223.139 36.1589C223.324 35.6079 223.31 35.065 223.312 34.4847C223.313 34.3545 223.315 34.2244 223.316 34.0902C223.321 33.6607 223.323 33.2312 223.325 32.8016C223.328 32.5035 223.331 32.2053 223.334 31.9072C223.341 31.1231 223.347 30.339 223.353 29.5548C223.358 28.7544 223.366 27.9541 223.373 27.1537C223.387 25.5837 223.399 24.0137 223.411 22.4437Z" fill="#144B7A"/>
<path d="M88.8774 54.7451C90.4493 54.7352 92.0212 54.7252 93.6406 54.715C94.1335 54.7106 94.6263 54.7062 95.1341 54.7017C95.5294 54.7003 95.9247 54.699 96.3199 54.698C96.4703 54.6961 96.4703 54.6961 96.6237 54.6942C98.7852 54.6685 100.529 55.0013 102.213 56.5832C102.956 57.4452 103.151 58.659 103.185 59.8073C103.128 61.5284 102.635 62.543 101.531 63.7445C101.387 63.9036 101.387 63.9036 101.24 64.0659C101.324 64.1109 101.409 64.1558 101.496 64.2022C102.32 64.6698 102.902 65.1416 103.422 65.9944C103.512 66.1389 103.512 66.1389 103.604 66.2863C104.265 67.5876 104.22 69.4187 103.885 70.8324C103.24 72.4285 102.045 73.2738 100.614 73.8833C99.1445 74.2829 97.5969 74.2125 96.0927 74.206C95.9086 74.2058 95.7245 74.2056 95.5349 74.2055C94.855 74.2046 94.1751 74.2024 93.4952 74.2003C91.9713 74.197 90.4475 74.1937 88.8774 74.1903C88.8774 67.7734 88.8774 61.3565 88.8774 54.7451ZM91.4954 57.1557C91.4954 59.1179 91.4954 61.0801 91.4954 63.1017C92.3362 63.1166 93.1766 63.1293 94.0173 63.137C94.3027 63.1402 94.5881 63.1446 94.8734 63.1502C97.4324 63.2264 97.4324 63.2264 99.7219 62.0772C100.243 61.4578 100.345 60.9678 100.413 60.1387C100.345 59.2904 100.152 58.6794 99.5946 58.0797C97.914 56.8705 95.9521 57.1347 94.0133 57.1456C92.767 57.1506 92.767 57.1506 91.4954 57.1557ZM91.4954 65.5123C91.4954 67.5805 91.4954 69.6488 91.4954 71.7797C92.3828 71.7871 93.2702 71.7935 94.1576 71.7974C94.4591 71.799 94.7605 71.8012 95.0619 71.804C95.497 71.8079 95.932 71.8097 96.3671 71.8111C96.5669 71.8136 96.5669 71.8136 96.7708 71.8161C97.9904 71.8164 99.5541 71.6924 100.474 70.7063C101.144 69.8585 101.292 69.3487 101.281 68.2166C101.205 67.3786 100.891 66.8687 100.322 66.3025C98.7867 65.0933 96.4337 65.4575 94.6496 65.4821C94.3429 65.4846 94.0363 65.4868 93.7296 65.4887C92.9848 65.4936 92.2402 65.503 91.4954 65.5123Z" fill="#0E4777"/>
<path d="M236.5 60.5305C236.808 60.8401 237.09 61.1574 237.373 61.4947C237.451 61.4113 237.528 61.3278 237.608 61.2418C238.686 60.1271 239.78 59.2833 241.3 59.2449C241.469 59.2387 241.637 59.2325 241.811 59.2261C243.544 59.1917 245.05 59.3225 246.388 60.6573C247.882 62.4246 247.867 64.3561 247.859 66.6574C247.859 66.8753 247.859 67.0933 247.858 67.3112C247.858 67.8808 247.856 68.4504 247.855 69.02C247.853 69.6028 247.853 70.1856 247.852 70.7685C247.85 71.9091 247.848 73.0497 247.845 74.1903C246.981 74.1903 246.117 74.1903 245.227 74.1903C245.224 73.9196 245.221 73.6488 245.218 73.3699C245.208 72.4712 245.197 71.5726 245.185 70.674C245.178 70.1296 245.171 69.5852 245.166 69.0408C245.159 68.4137 245.15 67.7866 245.142 67.1596C245.139 66.869 245.139 66.869 245.137 66.5725C245.116 65.242 245.074 63.9569 244.307 62.8676C243.655 62.2033 242.789 61.9442 241.918 61.9166C241.382 61.9438 240.931 62.0911 240.427 62.2983C240.235 62.2983 240.043 62.2983 239.846 62.2983C239.846 62.4043 239.846 62.5104 239.846 62.6197C239.604 62.8357 239.362 63.0497 239.118 63.2625C238.155 64.4812 238.18 66.3146 238.171 67.8501C238.167 68.1242 238.167 68.1242 238.163 68.4039C238.156 68.9801 238.151 69.5563 238.146 70.1326C238.141 70.5264 238.136 70.9202 238.131 71.314C238.118 72.2728 238.109 73.2315 238.1 74.1903C237.236 74.1903 236.372 74.1903 235.482 74.1903C235.48 73.923 235.478 73.6556 235.476 73.3801C235.468 72.4891 235.459 71.5982 235.448 70.7073C235.442 70.168 235.436 69.6287 235.432 69.0893C235.427 68.467 235.419 67.8447 235.411 67.2223C235.41 67.0319 235.409 66.8415 235.409 66.6453C235.389 65.4037 235.221 64.292 234.901 63.1018C234.805 63.1018 234.709 63.1018 234.61 63.1018C234.559 63.0057 234.508 62.9095 234.455 62.8105C233.96 62.1933 233.268 62.0354 232.544 61.9304C231.638 61.8908 230.814 62.1612 229.956 62.459C229.956 62.565 229.956 62.6711 229.956 62.7804C229.839 62.8202 229.722 62.8599 229.601 62.9009C229.478 62.9672 229.355 63.0335 229.228 63.1018C229.139 63.3988 229.139 63.3988 229.083 63.7446C228.976 64.1041 228.864 64.4613 228.751 64.8187C228.562 65.4936 228.482 66.1324 228.471 66.838C228.468 67.0021 228.466 67.1661 228.463 67.3351C228.459 67.5978 228.459 67.5978 228.455 67.8658C228.452 68.0466 228.449 68.2273 228.446 68.4136C228.437 68.9899 228.428 69.5663 228.419 70.1426C228.413 70.5338 228.407 70.925 228.4 71.3162C228.385 72.2742 228.37 73.2323 228.356 74.1903C227.492 74.1903 226.628 74.1903 225.738 74.1903C225.738 69.3114 225.738 64.4324 225.738 59.4056C226.554 59.4056 227.37 59.4056 228.21 59.4056C228.258 59.9359 228.306 60.4662 228.356 61.0126C228.527 60.8386 228.527 60.8386 228.701 60.6611C230.846 58.6944 234.329 58.584 236.5 60.5305Z" fill="#124979"/>
<path d="M140.69 59.2273C142.389 59.1869 143.924 59.3303 145.261 60.6008C145.429 60.7844 145.588 60.9778 145.745 61.1733C145.793 60.59 145.841 60.0066 145.89 59.4056C146.706 59.4056 147.522 59.4056 148.363 59.4056C148.363 66.0346 148.363 72.6637 148.363 79.4936C147.499 79.4936 146.635 79.4936 145.745 79.4936C145.697 77.2132 145.649 74.9328 145.599 72.5833C145.233 72.9076 144.866 73.232 144.5 73.5576C142.743 74.6512 140.639 74.5633 138.74 74.0146C137.718 73.6539 136.882 72.9589 136.146 72.1012C136.146 71.9951 136.146 71.8891 136.146 71.7798C136.002 71.7267 135.858 71.6737 135.709 71.6191C134.591 69.7201 134.157 67.436 134.5 65.211C134.815 63.6743 135.381 62.1115 136.437 61.0126C136.759 60.894 136.759 60.894 137.018 60.8519C137.018 60.7459 137.018 60.6398 137.018 60.5305C138.269 59.7874 139.263 59.2805 140.69 59.2273ZM138.027 63.4332C137.195 64.8276 136.996 66.2759 137.164 67.9229C137.388 68.9929 137.692 69.7825 138.473 70.4941C138.554 70.6035 138.635 70.7129 138.718 70.8256C139.649 71.6872 140.738 71.8951 141.926 71.8532C142.945 71.6952 144.015 71.1648 144.727 70.3334C145.291 69.4609 145.71 68.6948 145.745 67.6015C145.75 67.4639 145.756 67.3264 145.761 67.1847C145.8 65.5436 145.547 64.3845 144.581 63.1018C144.266 62.7726 143.944 62.5274 143.563 62.2983C143.436 62.2215 143.436 62.2215 143.306 62.1432C141.43 61.1982 139.417 61.8974 138.027 63.4332Z" fill="#114979"/>
<path d="M37.7076 32.8401C37.8516 32.8931 37.9956 32.9462 38.1439 33.0008C38.2934 33.3795 38.4173 33.745 38.5348 34.1358C38.8453 35.108 39.1967 36.0371 39.6165 36.9581C39.6637 37.0625 39.7109 37.167 39.7595 37.2745C41.1191 40.2139 43.6733 41.7946 46.4341 42.8037C46.7723 42.9185 47.1102 43.0244 47.4522 43.1251C47.4522 43.2842 47.4522 43.4433 47.4522 43.6072C47.3325 43.6508 47.3325 43.6508 47.2105 43.6952C43.5736 45.0301 41.0651 46.6269 39.3074 50.4673C39.2566 50.5781 39.2058 50.689 39.1534 50.8032C38.7781 51.6407 38.4982 52.482 38.2729 53.3844C38.2303 53.499 38.1878 53.6136 38.1439 53.7316C37.9999 53.7846 37.8559 53.8376 37.7076 53.8923C37.6392 53.6965 37.5707 53.5008 37.5002 53.2991C37.4088 53.0381 37.3173 52.7772 37.2258 52.5163C37.1809 52.3877 37.136 52.2592 37.0897 52.1267C35.8196 48.5075 34.1151 46.2069 30.8718 44.5715C30.0125 44.153 29.1707 43.8324 28.2539 43.6072C28.2539 43.4481 28.2539 43.289 28.2539 43.1251C28.5284 43.0456 28.5284 43.0456 28.8084 42.9644C31.8623 41.9372 34.4378 40.4107 36.0646 37.2507C36.7409 35.8416 37.2099 34.3341 37.7076 32.8401Z" fill="#0F4778"/>
<path d="M178.594 54.7269C178.767 54.7282 178.767 54.7282 178.943 54.7295C179.129 54.7303 179.129 54.7303 179.319 54.731C179.45 54.7324 179.58 54.7337 179.715 54.7351C179.846 54.7359 179.977 54.7366 180.112 54.7373C180.437 54.7392 180.762 54.7419 181.087 54.7452C181.18 54.967 181.18 54.967 181.274 55.1934C181.719 56.2545 182.171 57.3088 182.651 58.351C182.954 59.013 183.223 59.6606 183.442 60.3604C183.664 60.9828 183.953 61.5709 184.227 62.1664C184.462 62.6856 184.667 63.2083 184.869 63.7446C184.962 63.9758 185.056 64.2068 185.151 64.4376C185.364 64.9648 185.561 65.4964 185.751 66.0346C185.951 66.5952 186.18 67.0889 186.469 67.6015C186.577 67.8725 186.685 68.1437 186.788 68.4173C187.126 69.3115 187.493 70.1914 187.862 71.0704C187.926 71.2231 187.989 71.3758 188.055 71.5331C188.187 71.8489 188.32 72.1645 188.453 72.4797C188.516 72.6311 188.579 72.7826 188.644 72.9386C188.701 73.075 188.758 73.2114 188.817 73.3519C188.941 73.7082 188.941 73.7082 188.941 74.1903C187.981 74.1903 187.021 74.1903 186.032 74.1903C185.856 73.7624 185.68 73.3344 185.504 72.906C185.385 72.6165 185.265 72.3275 185.143 72.0397C184.77 71.149 184.549 70.3323 184.287 69.3692C181.263 69.3692 178.24 69.3692 175.124 69.3692C175.028 69.6874 174.932 70.0056 174.833 70.3334C174.746 70.5661 174.655 70.7973 174.561 71.0265C174.51 71.1495 174.46 71.2726 174.408 71.3994C174.331 71.5877 174.331 71.5877 174.252 71.7798C174.107 72.1419 173.963 72.5041 173.819 72.8664C173.634 73.3128 173.432 73.751 173.234 74.1903C172.322 74.1903 171.41 74.1903 170.47 74.1903C170.78 72.8204 170.78 72.8204 171.197 72.1012C171.305 71.8314 171.413 71.5613 171.516 71.2889C171.644 70.948 171.779 70.6106 171.916 70.2732C171.965 70.1503 172.015 70.0275 172.066 69.9009C172.162 69.6618 172.259 69.4228 172.356 69.184C172.63 68.5104 172.891 67.8332 173.143 67.1495C173.459 66.305 173.817 65.4928 174.192 64.6787C174.421 64.1742 174.631 63.6637 174.835 63.1462C175.449 61.5872 176.085 60.0384 176.715 58.4873C176.837 58.1866 176.959 57.8858 177.081 57.585C177.258 57.1488 177.435 56.7128 177.612 56.2769C177.667 56.1416 177.722 56.0064 177.778 55.8671C177.828 55.743 177.879 55.619 177.931 55.4913C177.975 55.3818 178.02 55.2723 178.066 55.1595C178.248 54.7503 178.248 54.7503 178.594 54.7269ZM179.633 57.9592C179.58 58.0974 179.527 58.2356 179.473 58.378C179.024 59.5432 178.561 60.6977 178.077 61.8456C177.936 62.1817 177.802 62.5205 177.67 62.8607C177.394 63.5716 177.095 64.2697 176.797 64.9693C176.556 65.5684 176.351 66.1842 176.142 66.798C178.446 66.798 180.75 66.798 183.124 66.798C182.694 65.3739 182.17 64.0245 181.551 62.6893C181.319 62.1649 181.128 61.6273 180.937 61.0836C180.8 60.6997 180.651 60.3241 180.497 59.948C180.23 59.2946 180 58.6327 179.778 57.9592C179.73 57.9592 179.682 57.9592 179.633 57.9592Z" fill="#154B7B"/>
<path d="M310.821 56.1916C310.913 56.267 311.006 56.3424 311.101 56.4201C311.348 56.6335 311.348 56.6335 311.693 56.9951C311.693 57.1011 311.693 57.2072 311.693 57.3165C311.789 57.3165 311.885 57.3165 311.984 57.3165C311.904 57.9575 311.623 58.2776 311.221 58.7327C311.109 58.863 310.997 58.9933 310.882 59.1275C310.53 59.4056 310.53 59.4056 310.123 59.3673C310.017 59.3269 309.912 59.2865 309.803 59.2449C309.731 59.0063 309.731 59.0063 309.657 58.7628C309.364 58.645 309.364 58.645 309.075 58.6021C309.075 58.496 309.075 58.39 309.075 58.2807C308.989 58.2496 308.903 58.2186 308.815 58.1865C308.7 58.1447 308.585 58.1028 308.466 58.0597C308.353 58.0187 308.24 57.9777 308.124 57.9354C307.766 57.7986 307.766 57.7986 307.415 57.6285C305.767 56.9648 303.778 57.2567 302.219 58.039C300.684 58.932 299.694 60.2119 299.131 62.0271C298.551 64.1146 298.69 65.888 299.516 67.8897C299.745 68.3588 299.952 68.7726 300.298 69.1464C300.494 69.3693 300.494 69.3693 300.494 69.6907C300.579 69.7342 300.664 69.7777 300.751 69.8225C301.074 70.0108 301.333 70.2281 301.622 70.4741C303.017 71.5154 304.902 71.8508 306.534 71.513C307.601 71.2544 308.475 70.8785 309.345 70.1219C309.676 69.835 310.02 69.6016 310.384 69.3693C310.598 69.5649 310.81 69.7629 311.021 69.9619C311.139 70.0719 311.257 70.1819 311.379 70.2952C311.707 70.6707 311.842 70.9651 311.984 71.4584C310.402 73.2998 308.548 74.3107 306.237 74.3994C304.082 74.4243 302.296 74.283 300.349 73.186C300.195 73.0996 300.195 73.0996 300.037 73.0115C299.392 72.622 298.954 72.1922 298.505 71.5483C298.297 71.2545 298.297 71.2545 297.876 70.9763C297.828 70.8172 297.78 70.6581 297.731 70.4942C297.644 70.4047 297.557 70.3152 297.467 70.223C296.393 68.9684 295.94 66.8767 295.84 65.191C295.833 65.0735 295.825 64.956 295.817 64.835C295.741 62.6667 296.407 60.6572 297.295 58.7628C297.391 58.7628 297.487 58.7628 297.586 58.7628C297.62 58.646 297.655 58.5291 297.691 58.4088C297.903 57.8952 298.151 57.5919 298.513 57.1959C298.625 57.0708 298.737 56.9457 298.852 56.8168C299.175 56.5222 299.359 56.4141 299.767 56.3523C299.767 56.2462 299.767 56.1401 299.767 56.0308C303.115 53.9288 307.595 53.536 310.821 56.1916Z" fill="#164C7B"/>
<path d="M160.725 60.0484C160.966 60.1606 161.208 60.2694 161.452 60.3698C161.452 60.4759 161.452 60.5819 161.452 60.6912C161.576 60.7052 161.576 60.7052 161.703 60.7195C162.582 61.071 163.179 62.4253 163.59 63.3127C164.179 64.9206 164.07 65.8861 164.07 67.7622C160.567 67.7622 157.063 67.7622 153.453 67.7622C153.85 69.2964 154.37 70.3592 155.646 71.1677C156.853 71.8012 158.196 71.8607 159.477 71.4659C160.31 71.1047 160.937 70.6677 161.598 70.012C162.034 70.012 162.034 70.012 162.336 70.341C162.493 70.556 162.493 70.556 162.652 70.7754C162.758 70.9171 162.864 71.0588 162.973 71.2048C163.198 71.6191 163.198 71.6191 163.186 71.9637C162.714 73.0182 161.525 73.6222 160.58 74.0296C158.375 74.7475 155.821 74.5163 153.795 73.3096C152.562 72.429 151.664 71.3629 151.126 69.8513C151.072 69.7254 151.018 69.5994 150.963 69.4697C150.445 67.7531 150.598 65.631 150.981 63.9053C151.119 63.6331 151.265 63.3649 151.417 63.1018C151.463 62.9677 151.508 62.8337 151.555 62.6956C152.007 61.5194 153.083 60.4688 154.117 59.948C154.282 59.875 154.447 59.8021 154.617 59.727C154.71 59.6673 154.803 59.6077 154.899 59.5462C156.516 58.7879 159.268 58.9442 160.725 60.0484ZM154.079 63.4376C153.985 63.5896 153.985 63.5896 153.89 63.7446C153.75 63.9484 153.75 63.9484 153.608 64.1564C153.385 64.6488 153.385 64.6488 153.453 65.673C156.093 65.673 158.733 65.673 161.452 65.673C161.452 64.765 161.401 64.489 161.016 63.7446C160.92 63.7446 160.824 63.7446 160.725 63.7446C160.719 63.6551 160.713 63.5656 160.707 63.4734C160.462 62.7569 159.94 62.4209 159.34 62.1043C157.447 61.2742 155.38 61.5292 154.079 63.4376Z" fill="#134A7A"/>
<path d="M218.029 59.2449C218.222 59.2489 218.222 59.2489 218.419 59.253C219.522 59.3288 220.64 59.9266 221.465 60.7364C222.298 61.8845 222.702 63.1829 222.7 64.6305C222.7 64.734 222.7 64.8376 222.7 64.9443C222.7 65.2851 222.699 65.626 222.698 65.9668C222.697 66.2037 222.697 66.4406 222.697 66.6775C222.697 67.2999 222.695 67.9223 222.693 68.5448C222.692 69.1803 222.691 69.8159 222.691 70.4515C222.689 71.6978 222.686 72.944 222.683 74.1903C221.868 74.1903 221.052 74.1903 220.211 74.1903C220.139 73.554 220.139 73.554 220.066 72.9047C219.97 73.0108 219.874 73.1168 219.775 73.2261C219.631 73.2261 219.487 73.2261 219.338 73.2261C219.338 73.3322 219.338 73.4382 219.338 73.5475C218.137 74.6099 216.283 74.4552 214.83 74.351C213.617 74.1288 212.424 73.684 211.649 72.567C211.127 71.6001 210.77 70.4977 210.903 69.3692C211.212 68.0393 211.648 67.0843 212.67 66.2639C214.152 65.3001 216.059 65.4511 217.72 65.4822C217.949 65.4846 218.178 65.4868 218.407 65.4888C218.96 65.494 219.513 65.5023 220.066 65.5123C219.989 64.408 219.852 63.6452 219.193 62.7804C218.838 62.4722 218.838 62.4722 218.466 62.2983C218.332 62.2175 218.332 62.2175 218.196 62.135C216.839 61.447 215.294 61.9556 213.957 62.459C213.541 62.6981 213.18 62.9666 212.793 63.2625C212.601 63.2625 212.41 63.2625 212.212 63.2625C212.066 62.9411 211.921 62.6197 211.775 62.2983C211.691 62.1292 211.607 61.9602 211.521 61.786C211.339 61.334 211.339 61.334 211.485 60.8519C213.486 59.2447 215.66 59.1879 218.029 59.2449ZM214.83 67.9229C214.623 67.9726 214.623 67.9726 214.412 68.0233C213.906 68.3846 213.7 68.9068 213.521 69.5299C213.521 70.3304 213.777 70.8579 214.248 71.4584C215.487 72.2262 216.837 72.1786 218.175 71.7798C218.608 71.5689 219.001 71.3461 219.338 70.9763C219.446 70.6414 219.446 70.6414 219.484 70.3334C219.58 70.3334 219.676 70.3334 219.775 70.3334C220.103 69.7558 220.096 69.2783 220.084 68.6059C220.081 68.4178 220.078 68.2297 220.076 68.0359C220.072 67.8925 220.069 67.7492 220.066 67.6015C219.466 67.592 218.866 67.5864 218.266 67.5814C218.013 67.5774 218.013 67.5774 217.756 67.5732C216.741 67.5669 215.815 67.6525 214.83 67.9229Z" fill="#144B7A"/>
<path d="M110.976 59.226C112.791 59.1845 114.443 59.219 115.93 60.5305C115.93 60.6365 115.93 60.7426 115.93 60.8519C116.017 60.8896 116.105 60.9273 116.196 60.9661C116.592 61.2262 116.7 61.4623 116.902 61.9165C116.963 62.0479 117.023 62.1792 117.086 62.3145C117.512 63.6127 117.403 65.0457 117.398 66.4062C117.398 66.6313 117.398 66.8565 117.398 67.0817C117.397 67.6703 117.396 68.2589 117.394 68.8475C117.392 69.4497 117.392 70.0519 117.391 70.6542C117.389 71.8329 117.387 73.0116 117.384 74.1903C116.568 74.1903 115.752 74.1903 114.911 74.1903C114.839 73.4743 114.839 73.4743 114.766 72.7439C114.691 72.8368 114.616 72.9296 114.539 73.0252C113.284 74.3046 111.874 74.4203 110.227 74.3912C108.871 74.2923 107.484 73.9494 106.545 72.7917C105.703 71.5515 105.655 70.4097 105.749 68.8871C105.888 67.8492 106.26 67.2092 107.002 66.5575C108.224 65.705 109.567 65.4852 110.988 65.4966C111.096 65.4968 111.205 65.497 111.317 65.4973C111.661 65.4982 112.004 65.5002 112.348 65.5022C112.582 65.503 112.817 65.5038 113.051 65.5044C113.623 65.5062 114.194 65.509 114.766 65.5123C114.7 65.1806 114.633 64.8492 114.566 64.5179C114.529 64.3333 114.492 64.1488 114.454 63.9586C114.344 63.4858 114.232 63.0583 114.039 62.6196C113.702 62.4146 113.702 62.4146 113.312 62.2982C113.198 62.2454 113.084 62.1926 112.967 62.1381C111.511 61.5245 110.078 61.9302 108.657 62.4589C108.287 62.665 107.949 62.8784 107.61 63.1406C107.348 63.2624 107.348 63.2624 107.049 63.167C106.71 62.8957 106.559 62.6424 106.358 62.2379C106.262 62.0521 106.262 62.0521 106.164 61.8625C106.039 61.4947 106.039 61.4947 106.038 61.167C106.492 60.195 107.724 59.8989 108.594 59.5725C109.41 59.3001 110.127 59.2539 110.976 59.226ZM108.803 68.4049C108.433 68.9297 108.194 69.396 108.257 70.0735C108.472 70.888 108.733 71.3017 109.385 71.7797C110.756 72.2717 112.152 72.1333 113.458 71.4709C114.089 71.0437 114.534 70.4612 114.766 69.6906C114.776 69.3325 114.778 68.9741 114.775 68.6159C114.774 68.4263 114.772 68.2368 114.771 68.0415C114.769 67.8963 114.768 67.751 114.766 67.6014C114.166 67.592 113.566 67.5863 112.966 67.5813C112.714 67.5773 112.714 67.5773 112.457 67.5732C110.51 67.5278 110.51 67.5278 108.803 68.4049Z" fill="#134A7A"/>
<path d="M319.174 59.2266C321.31 59.1815 323.166 59.4887 324.783 61.1733C326.134 62.6661 326.83 64.6378 326.865 66.7377C326.819 68.6206 326.351 70.7159 325.095 72.071C324.585 72.5788 324.081 73.0259 323.474 73.3868C323.324 73.4962 323.174 73.6055 323.02 73.7182C321.521 74.6461 319.392 74.5641 317.766 74.1702C315.801 73.5429 314.476 72.3269 313.472 70.3811C313.384 70.1984 313.384 70.1984 313.293 70.012C313.214 69.8691 313.214 69.8691 313.133 69.7232C312.49 67.9792 312.664 65.1966 313.304 63.4903C313.643 62.6849 313.991 62.086 314.602 61.4947C314.731 61.3455 314.86 61.1964 314.993 61.0427C315.33 60.6912 315.33 60.6912 315.621 60.6912C315.621 60.5851 315.621 60.479 315.621 60.3698C316.839 59.6988 317.819 59.276 319.174 59.2266ZM316.348 63.5838C315.469 64.8083 315.393 66.0795 315.475 67.6014C315.633 68.9639 316.257 70.0796 317.231 70.9247C318.345 71.7674 319.368 71.9515 320.711 71.7797C321.905 71.4956 322.738 70.7489 323.474 69.6906C324.171 68.3533 324.333 66.9661 324.029 65.4721C323.734 64.3189 323.238 63.5999 322.456 62.7803C322.389 62.6987 322.321 62.6171 322.251 62.533C321.47 61.7396 320.279 61.7299 319.278 61.7609C318.068 61.907 317.165 62.6161 316.348 63.5838Z" fill="#134A7A"/>
<path d="M269.143 59.2261C271.561 59.1776 273.344 59.6726 275.144 61.5444C276.582 63.4058 276.897 65.5438 276.788 67.9229C276.679 69.0586 276.261 69.983 275.769 70.9763C275.706 71.1188 275.643 71.2613 275.579 71.4082C274.581 72.9193 272.948 73.985 271.298 74.2889C269.08 74.5799 267.05 74.2951 265.248 72.7786C264.016 71.6374 262.997 70.1322 262.843 68.3121C262.739 66.0867 262.835 64.2592 263.843 62.2983C263.939 62.2983 264.035 62.2983 264.134 62.2983C264.143 62.2088 264.152 62.1193 264.161 62.0271C264.331 61.4946 264.628 61.2208 265.007 60.8519C265.151 60.7989 265.295 60.7459 265.443 60.6912C265.509 60.6171 265.574 60.5429 265.641 60.4665C266.564 59.4687 267.917 59.2722 269.143 59.2261ZM267.479 62.2983C267.479 62.4043 267.479 62.5104 267.479 62.6197C267.358 62.6744 267.358 62.6744 267.234 62.7302C266.406 63.2496 265.872 64.0393 265.589 65.0302C265.344 66.6702 265.319 68.223 266.134 69.6605C266.821 70.6988 267.659 71.4384 268.788 71.7798C270.129 71.9669 271.149 71.7991 272.279 70.9763C272.417 70.8769 272.555 70.7774 272.697 70.675C273.092 70.2391 273.338 69.7528 273.588 69.2085C273.669 69.0428 273.75 68.8771 273.833 68.7063C274.293 67.5942 274.315 66.3875 273.97 65.2311C273.891 65.0032 273.813 64.7755 273.733 64.5481C273.7 64.4089 273.667 64.2697 273.633 64.1263C273.075 63.0096 271.893 62.218 270.824 61.8162C269.625 61.6929 268.592 61.7897 267.479 62.2983Z" fill="#134A7A"/>
<path d="M248.427 59.4055C249.386 59.4055 250.346 59.4055 251.335 59.4055C251.674 60.2479 252.01 61.0882 252.335 61.9366C252.627 62.6927 252.93 63.4416 253.244 64.1865C253.501 64.7934 253.743 65.4002 253.962 66.0245C254.202 66.7058 254.49 67.348 254.792 67.9982C255.035 68.5492 255.238 69.1139 255.437 69.6856C255.549 70.0155 255.549 70.0155 255.699 70.3334C256.006 69.9092 256.217 69.5255 256.389 69.0176C257.01 67.2443 257.662 65.4922 258.401 63.7745C258.693 63.0925 258.956 62.4041 259.203 61.7012C259.489 60.9025 259.776 60.1212 260.207 59.4055C260.481 59.3508 260.481 59.3508 260.808 59.3585C260.926 59.36 261.043 59.3616 261.163 59.3632C261.347 59.3692 261.347 59.3692 261.534 59.3754C261.658 59.3776 261.782 59.3798 261.909 59.382C262.214 59.3877 262.52 59.3963 262.825 59.4055C262.341 60.7465 261.848 62.0678 261.253 63.3535C261.021 63.8787 260.83 64.4173 260.638 64.9617C260.462 65.4517 260.267 65.9303 260.071 66.4106C259.894 66.8546 259.728 67.303 259.562 67.7521C259.282 68.5014 258.969 69.221 258.635 69.9423C258.403 70.4675 258.212 71.0062 258.02 71.5506C257.844 72.0415 257.649 72.5209 257.452 73.002C257.281 73.4316 257.122 73.8657 256.962 74.3008C255.414 78.4186 255.414 78.4186 253.626 79.373C252.021 80.0364 250.337 79.7912 248.796 79.0735C248.459 78.8705 248.239 78.687 247.99 78.3686C248.247 77.5696 248.629 76.8524 249.008 76.1187C249.37 76.2052 249.574 76.2659 249.872 76.5205C250.537 77.0551 251.416 76.9828 252.208 76.9223C252.871 76.7433 253.145 76.4212 253.517 75.7973C253.857 75.1302 254.095 74.5718 254.108 73.7986C253.938 73.171 253.704 72.6351 253.428 72.0572C253.221 71.607 253.044 71.1525 252.872 70.6849C252.621 70.0059 252.354 69.3397 252.072 68.6761C251.661 67.7066 251.304 66.7219 250.956 65.7232C250.774 65.244 250.563 64.8286 250.317 64.3874C250.216 64.0896 250.116 63.7916 250.018 63.4922C249.849 63.0101 249.652 62.5457 249.454 62.0772C249.081 61.1974 248.745 60.311 248.427 59.4055Z" fill="#164C7B"/>
<path d="M277.224 59.4056C280.824 59.4056 284.423 59.4056 288.132 59.4056C288.132 61.6177 288.132 61.6177 287.55 62.2983C287.454 62.2983 287.358 62.2983 287.26 62.2983C287.164 62.5635 287.068 62.8286 286.969 63.1018C286.873 63.1018 286.777 63.1018 286.678 63.1018C286.663 63.2013 286.648 63.3007 286.632 63.4031C286.532 63.7446 286.532 63.7446 286.096 64.0661C286.024 64.3047 286.024 64.3047 285.951 64.5482C285.708 64.816 285.466 65.0838 285.223 65.3517C284.99 65.6912 284.766 66.0354 284.544 66.3843C284.48 66.4678 284.417 66.5513 284.351 66.6373C284.255 66.6373 284.159 66.6373 284.06 66.6373C283.964 66.9025 283.868 67.1676 283.769 67.4408C283.673 67.4408 283.577 67.4408 283.478 67.4408C283.43 67.653 283.382 67.8651 283.333 68.0836C283.237 68.0836 283.141 68.0836 283.042 68.0836C283.005 68.174 282.968 68.2643 282.93 68.3573C282.725 68.7792 282.481 69.1198 282.205 69.4898C281.688 70.1871 281.206 70.8954 280.715 71.6191C283.21 71.6722 285.706 71.7252 288.278 71.7798C288.278 72.5753 288.278 73.3708 288.278 74.1904C284.582 74.1904 280.886 74.1904 277.079 74.1904C277.079 71.8397 277.079 71.8397 278.097 70.6549C278.317 70.3619 278.535 70.0672 278.751 69.771C278.861 69.6242 278.971 69.4773 279.084 69.326C279.475 68.7928 279.849 68.2466 280.219 67.6951C280.32 67.5692 280.32 67.5692 280.424 67.4408C280.52 67.4408 280.616 67.4408 280.715 67.4408C280.733 67.3381 280.751 67.2353 280.769 67.1295C280.814 66.9654 280.814 66.9654 280.86 66.798C281.004 66.7185 281.004 66.7185 281.151 66.6373C281.316 66.3132 281.316 66.3132 281.442 65.9945C281.538 65.9945 281.634 65.9945 281.733 65.9945C281.781 65.8693 281.781 65.8693 281.83 65.7415C282.099 65.2003 282.44 64.7383 282.787 64.2569C282.855 64.1619 282.923 64.0669 282.992 63.9691C283.479 63.2892 283.984 62.6369 284.496 61.9769C280.896 61.8974 280.896 61.8974 277.224 61.8162C277.224 61.0207 277.224 60.2252 277.224 59.4056Z" fill="#0F4777"/>
<path d="M199.995 54.7451C204.842 54.7451 209.69 54.7451 214.684 54.7451C214.684 55.5936 214.684 56.4421 214.684 57.3164C212.716 57.3164 210.749 57.3164 208.721 57.3164C208.721 62.8848 208.721 68.4532 208.721 74.1903C207.857 74.1903 206.993 74.1903 206.103 74.1903C206.103 68.6219 206.103 63.0535 206.103 57.3164C204.087 57.3164 202.072 57.3164 199.995 57.3164C199.995 56.4679 199.995 55.6193 199.995 54.7451Z" fill="#104878"/>
<path d="M173.96 15.6942C175.064 15.6942 176.168 15.6942 177.306 15.6942C177.306 22.1641 177.306 28.6341 177.306 35.3001C176.202 35.3001 175.098 35.3001 173.96 35.3001C173.96 28.8301 173.96 22.3602 173.96 15.6942Z" fill="#084273"/>
<path d="M190.396 53.6202C191.259 53.6202 192.123 53.6202 193.013 53.6202C193.013 60.4084 193.013 67.1965 193.013 74.1903C192.15 74.1903 191.286 74.1903 190.396 74.1903C190.396 67.4022 190.396 60.6141 190.396 53.6202Z" fill="#134B7A"/>
<path d="M127.856 59.2449C127.856 60.1464 127.856 61.048 127.856 61.9769C127.392 62.0501 126.928 62.1233 126.464 62.1966C125.423 62.4086 124.495 62.759 123.87 63.7458C123.305 64.898 123.24 65.8961 123.244 67.1909C123.242 67.392 123.24 67.593 123.237 67.8002C123.232 68.3291 123.23 68.8579 123.23 69.3869C123.228 69.9288 123.223 70.4707 123.218 71.0127C123.209 72.0719 123.204 73.1311 123.201 74.1903C122.338 74.1903 121.474 74.1903 120.583 74.1903C120.583 69.3114 120.583 64.4324 120.583 59.4056C121.399 59.4056 122.215 59.4056 123.056 59.4056C123.104 59.9359 123.152 60.4662 123.201 61.0126C123.291 60.8966 123.381 60.7806 123.474 60.6611C124.711 59.3026 126.212 59.2165 127.856 59.2449Z" fill="#124A7A"/>
<path d="M129.747 59.4056C130.611 59.4056 131.474 59.4056 132.365 59.4056C132.365 64.2846 132.365 69.1636 132.365 74.1904C131.501 74.1904 130.637 74.1904 129.747 74.1904C129.747 69.3114 129.747 64.4325 129.747 59.4056Z" fill="#124A79"/>
<path d="M195.777 65.1909C198.081 65.1909 200.384 65.1909 202.758 65.1909C202.758 66.0394 202.758 66.888 202.758 67.7622C200.454 67.7622 198.15 67.7622 195.777 67.7622C195.777 66.9137 195.777 66.0651 195.777 65.1909Z" fill="#225582"/>
<path d="M111.566 37.2285C112.766 37.2285 113.966 37.2285 115.202 37.2285C115.202 38.3422 115.202 39.4559 115.202 40.6033C114.003 40.6033 112.803 40.6033 111.566 40.6033C111.566 39.4896 111.566 38.3759 111.566 37.2285Z" fill="#184E7C"/>
<path d="M107.058 37.2285C108.258 37.2285 109.457 37.2285 110.694 37.2285C110.694 38.3422 110.694 39.4559 110.694 40.6033C109.494 40.6033 108.294 40.6033 107.058 40.6033C107.058 39.4896 107.058 38.3759 107.058 37.2285Z" fill="#174D7D"/>
<path d="M311.839 17.1405C313.039 17.1405 314.239 17.1405 315.475 17.1405C315.475 18.2542 315.475 19.3679 315.475 20.5153C314.275 20.5153 313.075 20.5153 311.839 20.5153C311.839 19.4016 311.839 18.2879 311.839 17.1405Z" fill="#194E7D"/>
<path d="M260.498 17.1405C261.698 17.1405 262.898 17.1405 264.134 17.1405C264.134 18.2542 264.134 19.3679 264.134 20.5153C262.934 20.5153 261.734 20.5153 260.498 20.5153C260.498 19.4016 260.498 18.2879 260.498 17.1405Z" fill="#194E7D"/>
<path d="M197.813 17.1405C199.013 17.1405 200.213 17.1405 201.449 17.1405C201.449 18.2542 201.449 19.3679 201.449 20.5153C200.249 20.5153 199.049 20.5153 197.813 20.5153C197.813 19.4016 197.813 18.2879 197.813 17.1405Z" fill="#184E7C"/>
<path d="M193.159 17.1405C194.359 17.1405 195.558 17.1405 196.795 17.1405C196.795 18.2542 196.795 19.3679 196.795 20.5153C195.595 20.5153 194.395 20.5153 193.159 20.5153C193.159 19.4016 193.159 18.2879 193.159 17.1405Z" fill="#184E7D"/>
<path d="M151.562 17.1405C152.762 17.1405 153.962 17.1405 155.199 17.1405C155.199 18.2542 155.199 19.3679 155.199 20.5153C153.999 20.5153 152.799 20.5153 151.562 20.5153C151.562 19.4016 151.562 18.2879 151.562 17.1405Z" fill="#184E7D"/>
<path d="M146.909 17.1405C148.109 17.1405 149.308 17.1405 150.545 17.1405C150.545 18.2542 150.545 19.3679 150.545 20.5153C149.345 20.5153 148.145 20.5153 146.909 20.5153C146.909 19.4016 146.909 18.2879 146.909 17.1405Z" fill="#194F7D"/>
<path d="M89.1685 17.1405C90.3683 17.1405 91.5682 17.1405 92.8045 17.1405C92.8045 18.2542 92.8045 19.3679 92.8045 20.5153C91.6046 20.5153 90.4047 20.5153 89.1685 20.5153C89.1685 19.4016 89.1685 18.2879 89.1685 17.1405Z" fill="#184E7D"/>
<path d="M216.575 37.2285C217.727 37.2285 218.878 37.2285 220.065 37.2285C220.065 38.3422 220.065 39.4559 220.065 40.6033C218.913 40.6033 217.762 40.6033 216.575 40.6033C216.575 39.4896 216.575 38.3759 216.575 37.2285Z" fill="#0D4676"/>
<path d="M212.066 37.2285C213.218 37.2285 214.37 37.2285 215.557 37.2285C215.557 38.3422 215.557 39.4559 215.557 40.6033C214.405 40.6033 213.253 40.6033 212.066 40.6033C212.066 39.4896 212.066 38.3759 212.066 37.2285Z" fill="#0C4576"/>
<path d="M316.493 17.1405C317.645 17.1405 318.797 17.1405 319.984 17.1405C319.984 18.2542 319.984 19.3679 319.984 20.5153C318.832 20.5153 317.68 20.5153 316.493 20.5153C316.493 19.4016 316.493 18.2879 316.493 17.1405Z" fill="#174D7C"/>
<path d="M255.989 17.1405C257.141 17.1405 258.293 17.1405 259.48 17.1405C259.48 18.2542 259.48 19.3679 259.48 20.5153C258.328 20.5153 257.176 20.5153 255.989 20.5153C255.989 19.4016 255.989 18.2879 255.989 17.1405Z" fill="#174D7C"/>
<path d="M243.045 37.2285C244.149 37.2285 245.253 37.2285 246.391 37.2285C246.391 38.3422 246.391 39.4559 246.391 40.6033C245.287 40.6033 244.183 40.6033 243.045 40.6033C243.045 39.4896 243.045 38.3759 243.045 37.2285Z" fill="#0C4475"/>
<path d="M314.312 13.1229C314.842 13.1185 315.372 13.1153 315.902 13.1128C316.129 13.1108 316.129 13.1108 316.361 13.1087C316.577 13.108 316.577 13.108 316.797 13.1072C316.997 13.1059 316.997 13.1059 317.201 13.1046C317.511 13.1229 317.511 13.1229 317.657 13.2836C317.671 13.4974 317.676 13.712 317.676 13.9264C317.676 14.1203 317.676 14.1203 317.677 14.3181C317.676 14.454 317.675 14.5899 317.675 14.7299C317.676 14.9337 317.676 14.9337 317.677 15.1417C317.676 15.271 317.676 15.4002 317.676 15.5334C317.676 15.6527 317.676 15.7721 317.675 15.895C317.657 16.1762 317.657 16.1762 317.511 16.3369C317.273 16.3509 317.035 16.3541 316.797 16.3526C316.653 16.3521 316.509 16.3516 316.361 16.3511C316.21 16.3497 316.058 16.3484 315.902 16.347C315.75 16.3463 315.598 16.3455 315.442 16.3448C315.065 16.3429 314.688 16.34 314.312 16.3369C314.312 15.2763 314.312 14.2156 314.312 13.1229Z" fill="#275A85"/>
<path d="M131.783 53.1382C132.204 53.492 132.422 53.7466 132.655 54.2631C132.719 54.9481 132.718 55.5394 132.483 56.1815C132.039 56.7398 131.65 56.8185 130.992 56.8846C130.413 56.8285 130.085 56.7046 129.601 56.3522C129.251 55.8879 129.17 55.5978 129.101 54.9963C129.176 54.3177 129.359 53.986 129.746 53.4596C130.393 52.9835 131.025 53.0145 131.783 53.1382Z" fill="#1A507E"/>
<path d="M153.599 60.2091C153.695 60.2621 153.791 60.3152 153.89 60.3698C153.17 61.1653 152.45 61.9608 151.708 62.7804C151.708 61.9441 152.363 61.4271 152.872 60.8519C153.108 60.6291 153.347 60.4093 153.599 60.2091Z" fill="#7694B2"/>
<path d="M256.135 23.2472C256.183 23.3533 256.231 23.4593 256.281 23.5686C256.097 23.7575 255.912 23.9447 255.726 24.1311C255.572 24.2877 255.572 24.2877 255.414 24.4474C255.117 24.6935 255.117 24.6935 254.681 24.6935C255.126 24.0611 255.479 23.6198 256.135 23.2472Z" fill="#6689A6"/>
<path d="M265.007 60.8519C265.151 60.905 265.295 60.958 265.443 61.0126C265.059 61.4369 264.675 61.8611 264.28 62.2983C264.232 62.1922 264.184 62.0861 264.134 61.9769C264.422 61.6056 264.71 61.2344 265.007 60.8519Z" fill="#577E9F"/>
</g>
<defs>
<clipPath id="clip0_1129_9118">
<rect width="327" height="83" fill="white"/>
</clipPath>
</defs>
</svg>
