<svg width="53" height="53" viewBox="0 0 53 53" fill="none" xmlns="http://www.w3.org/2000/svg">
<g clip-path="url(#clip0_55_7407)">
<rect width="53" height="53" rx="8" fill="#021031"/>
<path d="M26.304 3.5339C23.4732 4.89324 24.574 9.1028 27.7418 9.1028C28.8652 9.1028 29.5841 8.70815 30.2132 7.80924C31.9656 5.26596 29.1348 2.17457 26.304 3.5339Z" fill="#FFDD00"/>
<path d="M22.3722 9.9141C21.0467 10.7253 20.9119 12.282 22.0802 13.4221C22.7991 14.1237 22.9788 14.1894 23.7876 14.0798C24.8211 13.9483 25.4052 13.5098 25.7872 12.5889C26.1466 11.7777 25.922 10.9446 25.1132 10.1772C24.3718 9.43176 23.3158 9.34406 22.3722 9.9141Z" fill="#FFDD00"/>
<path d="M27.7194 12.8522C26.686 13.6415 26.978 15.3735 28.2137 15.8778C29.4494 16.3821 30.7075 15.527 30.73 14.1896C30.73 12.6768 28.9776 11.8875 27.7194 12.8522Z" fill="#FFDD00"/>
<path d="M32.3472 14.8472C32.1675 15.0226 32.0776 15.8557 32.0776 17.1712C32.0776 19.7802 31.7182 20.6134 30.3477 21.2053C29.8085 21.4246 29.3816 21.6658 29.3816 21.7315C29.3816 21.7754 30.1455 23.6171 31.0891 25.7876C32.0552 28.0678 32.7067 29.8437 32.5944 29.9533C32.482 30.063 28.5504 31.7731 23.8773 33.7463C10.1277 39.5345 9.54361 39.7976 9.11674 40.1703C8.51014 40.7184 8.62247 41.7927 9.52114 43.9194C10.4872 46.2215 10.622 46.375 11.4533 46.375C11.8127 46.375 17.3171 44.1825 23.8324 41.42C33.3133 37.4078 35.5824 36.5308 35.7622 36.7719C35.8745 36.9473 36.7282 38.8986 37.6718 41.1131C38.93 44.0948 39.5366 45.2349 39.9859 45.5638L40.615 46.0242L42.7942 45.1472C45.2206 44.2044 46.007 43.6125 46.007 42.7574C46.007 42.4285 44.7488 39.2933 43.2211 35.7853C41.6934 32.2554 39.1097 26.27 37.4696 22.477C35.852 18.684 34.3692 15.3514 34.1895 15.0664C33.83 14.5402 32.7966 14.4087 32.3472 14.8472Z" fill="white"/>
<path d="M17.8338 15.198C17.7215 15.3953 13.7674 24.4941 10.5097 32.0581C8.77977 36.1142 8.46524 36.9912 8.71237 37.2762C8.86964 37.4516 9.18417 37.6051 9.43131 37.6051C10.2401 37.6051 17.0475 34.711 17.362 34.2287C17.8338 33.5052 22.6417 22.3674 22.6417 22.0166C22.6417 21.8193 22.3047 21.6 21.8104 21.4685C20.44 21.1396 20.1254 20.4599 19.9682 17.6097L19.8334 15.1322L18.8898 15.0664C18.3955 15.0226 17.9012 15.0883 17.8338 15.198Z" fill="white"/>
<path d="M24.5963 16.5135C24.1469 16.9958 24.102 18.114 24.4839 18.4867C24.8659 18.8594 26.1465 18.8156 26.5509 18.399C27.0451 17.9386 27.0002 16.9301 26.5059 16.4916C25.9667 16.0092 25.0456 16.0311 24.5963 16.5135Z" fill="#FFDD00"/>
<path d="M53.6232 26.8402L52.9717 27.476V35.3032V43.1303L53.6232 43.7661L54.2972 44.402L104.196 44.3581L154.094 44.2923L154.139 38.5919L154.184 32.8914L156.902 32.8257C159.374 32.7818 159.666 32.8037 160.205 33.2203C160.789 33.6807 160.812 33.7684 160.812 35.8732C160.812 37.0791 160.722 38.263 160.587 38.4823C160.272 39.0523 159.171 39.3593 157.419 39.3593H155.869V41.8806V44.402H158.79H161.71V38.5919V32.7818H164.519C167.215 32.7818 167.372 32.8037 167.889 33.3299C168.405 33.8123 168.45 34.0315 168.45 35.939C168.45 37.8245 168.405 38.0876 167.911 38.6357C167.349 39.2716 167.282 39.2716 163.912 39.3593C163.552 39.3593 163.508 39.6224 163.508 41.8806V44.402H178.336C188.378 44.402 193.321 44.3362 193.68 44.1608C194.804 43.6565 194.848 43.4811 194.916 36.0705C195.006 28.3092 194.938 27.476 194.174 26.7306L193.635 26.2044H123.966H54.2747L53.6232 26.8402ZM60.835 31.4663V32.3433H59.5993C58.9253 32.3433 58.3637 32.431 58.3637 32.5626C58.3637 32.6722 58.9253 32.7818 59.5993 32.7818H60.835V33.6588V34.5358H59.5993H58.3637V36.9475C58.3637 39.5347 58.3637 39.5566 57.128 39.2277C56.7011 39.1181 56.6787 38.9427 56.6787 35.4347C56.6787 30.8305 56.791 30.6332 59.5544 30.6113L60.835 30.5893V31.4663ZM88.424 31.7294L88.4914 32.7818H90.4011C92.131 32.7818 92.3557 32.8257 92.8724 33.3299C93.4116 33.8561 93.4341 33.9438 93.3667 36.5529L93.2993 39.2496H92.513H91.7266L91.6592 36.8818L91.5918 34.5358H90.0416H88.4914L88.424 36.8818L88.3566 39.2496H87.5703H86.784L86.7166 35.1936C86.6941 32.9791 86.7166 31.0278 86.784 30.8524C86.8514 30.677 87.1659 30.5893 87.6152 30.6332C88.3342 30.699 88.3566 30.7428 88.424 31.7294ZM115.159 31.5102L115.227 32.3433H114.328H113.407V31.4444V30.5674L114.261 30.6332C115.047 30.699 115.092 30.7428 115.159 31.5102ZM133.178 34.0973V37.6053H133.852C134.481 37.6053 134.526 37.6491 134.526 38.4384C134.526 39.14 134.458 39.2716 134.031 39.3154C133.245 39.3812 132.077 38.9208 131.83 38.4823C131.695 38.263 131.605 36.3994 131.605 34.3385V30.5893H132.391H133.178V34.0973ZM171.101 34.1412L171.169 37.6053H171.843C172.472 37.6053 172.494 37.6491 172.427 38.3726C172.314 39.3812 172.247 39.425 171.146 39.2496C169.416 38.9646 169.349 38.7892 169.349 34.4043V30.5674L170.203 30.6332L171.034 30.699L171.101 34.1412ZM175.19 31.4663V32.3433H174.292C173.415 32.3433 173.393 32.3214 173.393 31.6198C173.393 30.699 173.505 30.5893 174.449 30.5893C175.168 30.5893 175.19 30.6113 175.19 31.4663ZM67.912 33.3299C68.4287 33.8123 68.4737 34.0096 68.4737 36.0048C68.4512 39.0523 68.0917 39.3812 64.7442 39.2935C62.9469 39.2496 62.7671 39.2058 62.2729 38.6357C61.8011 38.0876 61.7337 37.8026 61.7337 36.1582C61.7337 34.1631 62.0931 33.1107 62.7896 32.9353C63.0143 32.8695 64.1376 32.8257 65.2834 32.8037C67.2155 32.7818 67.4177 32.8257 67.912 33.3299ZM74.652 33.6588V34.4262L72.9221 34.492L71.1697 34.5577V36.8379C71.1697 39.2716 71.0798 39.447 69.934 39.2716C69.5071 39.2058 69.4847 39.0085 69.4173 36.531C69.3499 33.9438 69.3723 33.8561 69.934 33.308C70.4507 32.8037 70.608 32.7599 72.5626 32.8257L74.652 32.8914V33.6588ZM85.773 33.6588V34.5358H83.3016H80.8303V36.0705V37.6053H83.3241H85.7954L85.728 38.4165L85.6606 39.2496H82.8972C80.1338 39.2496 80.1114 39.2496 79.5722 38.6357C79.0779 38.0876 79.033 37.8245 79.033 35.939C79.033 34.0315 79.0779 33.8123 79.5946 33.3299C80.1114 32.8037 80.2686 32.7818 82.9646 32.7818H85.773V33.6588ZM100.017 33.023C100.758 33.3738 101.095 34.2289 101.005 35.654L100.938 36.8379L98.6014 36.8818C96.7142 36.9037 96.22 36.9695 96.0627 37.2545C95.883 37.5614 96.1526 37.6053 98.4666 37.6053H101.073L101.005 38.4165L100.938 39.2496L98.8036 39.3154C94.6473 39.447 94.3103 39.2058 94.3103 36.0705C94.3103 34.0096 94.3552 33.8123 94.872 33.3299C95.3662 32.8257 95.5909 32.7818 97.4332 32.7818C98.5565 32.7818 99.7023 32.8914 100.017 33.023ZM111.273 33.3299C111.812 33.8342 111.834 33.9877 111.834 36.6187V39.3812L111.003 39.3154L110.149 39.2496L110.082 36.8818L110.014 34.5358H109.026H108.037L107.97 36.8818L107.903 39.2496L107.071 39.3154L106.218 39.3812V36.9695V34.5358H105.094H103.993L103.926 36.8818L103.859 39.2496H103.072H102.286L102.219 36.0048L102.151 32.7818H106.442C110.688 32.7818 110.733 32.7818 111.273 33.3299ZM115.092 36.0705V39.2496L114.261 39.3154L113.407 39.3812V36.0705V32.7599L114.261 32.8257L115.092 32.8914V36.0705ZM122.731 33.6588V34.4262L120.327 34.492L117.945 34.5577L117.855 35.9828C117.833 36.7721 117.833 37.4737 117.878 37.5176C117.923 37.5614 119.069 37.6053 120.417 37.6053H122.865L122.798 38.4165L122.731 39.2496L120.821 39.3154C118.305 39.4031 117.091 39.2277 116.552 38.6357C116.17 38.2411 116.103 37.8684 116.103 36.0267C116.103 34.0096 116.148 33.8123 116.665 33.308C117.204 32.7818 117.294 32.7599 119.967 32.8257L122.731 32.8914V33.6588ZM129.965 33.308C130.594 33.8342 130.594 33.8561 130.594 36.5529V39.2496L128.46 39.3154C124.528 39.447 123.966 39.1181 123.966 36.7283V35.1936H126.438C128.482 35.1936 128.909 35.1278 128.909 34.8647C128.909 34.6016 128.482 34.5358 126.438 34.5358H123.966V33.6588V32.7818H126.64C129.156 32.7818 129.381 32.8257 129.965 33.308ZM145.04 33.1545C145.31 33.3738 145.579 33.8123 145.669 34.1631L145.804 34.7551L143.31 34.6235C141.086 34.492 140.816 34.5139 140.816 34.8208C140.816 35.1497 141.108 35.1936 142.726 35.1936C144.478 35.1936 144.703 35.2374 145.197 35.7417C145.961 36.4652 145.961 37.7807 145.22 38.6357C144.68 39.2277 144.613 39.2496 142.434 39.2496C140.367 39.2496 140.142 39.2058 139.603 38.7234C139.288 38.4165 139.019 37.9999 139.019 37.7807C139.019 37.408 139.176 37.386 141.49 37.5176C143.692 37.6491 143.962 37.6272 143.962 37.3203C143.962 37.0133 143.692 36.9475 142.277 36.9475C140.502 36.9475 139.423 36.5967 139.154 35.9609C138.817 35.1059 139.019 33.8561 139.581 33.3299C140.075 32.8257 140.277 32.7818 142.344 32.7818C144.164 32.7818 144.68 32.8476 145.04 33.1545ZM148.23 35.1936V37.6272L149.825 37.5614L151.42 37.4957L151.465 35.1936L151.488 32.8914L152.342 32.8257L153.173 32.7599V35.4128C153.173 36.8818 153.083 38.263 152.948 38.4823C152.611 39.0962 151.443 39.3593 149.398 39.2716C146.725 39.1619 146.568 38.9865 146.478 35.8294C146.433 34.5139 146.455 33.2861 146.523 33.1107C146.59 32.9134 146.95 32.7818 147.444 32.7818H148.23V35.1936ZM175.19 36.0486V39.3154L174.359 39.2935L173.505 39.2496L173.46 36.2898C173.438 34.6674 173.46 33.1984 173.505 33.0449C173.55 32.9134 173.955 32.7818 174.404 32.7818H175.19V36.0486ZM182.245 33.2422C182.784 33.6588 182.829 33.8123 182.829 35.3251V36.9475H180.358C178.313 36.9475 177.886 37.0133 177.886 37.2764C177.886 37.5395 178.313 37.6053 180.358 37.6053H182.829V38.5042V39.4031L180.043 39.3373C176.314 39.2277 176.314 39.2277 176.314 36.0486C176.314 33.7684 176.336 33.6807 176.898 33.2422C177.414 32.8476 177.819 32.7818 179.571 32.7818C181.324 32.7818 181.728 32.8476 182.245 33.2422ZM190.131 33.3299C190.445 33.615 190.692 34.0535 190.692 34.3166C190.692 34.7551 190.625 34.7551 188.221 34.6235C186.019 34.492 185.75 34.5139 185.75 34.8208C185.75 35.1497 186.042 35.1936 187.659 35.1936C189.412 35.1936 189.636 35.2374 190.131 35.7417C190.894 36.4652 190.894 37.7807 190.153 38.6357C189.614 39.2277 189.546 39.2496 187.322 39.2496C185.098 39.2496 185.031 39.2277 184.491 38.6357C183.48 37.4737 183.66 37.3641 186.424 37.5176C188.625 37.6491 188.895 37.6272 188.895 37.3203C188.895 37.0133 188.625 36.9475 187.21 36.9475C186.289 36.9475 185.3 36.8379 185.008 36.7064C183.862 36.2021 183.57 34.2289 184.514 33.3299C185.008 32.8257 185.21 32.7818 187.322 32.7818C189.434 32.7818 189.636 32.8257 190.131 33.3299Z" fill="#FFDD00"/>
</g>
<defs>
<clipPath id="clip0_55_7407">
<rect width="53" height="53" rx="8" fill="white"/>
</clipPath>
</defs>
</svg>
