<svg width="187" height="45" viewBox="0 0 187 45" fill="none" xmlns="http://www.w3.org/2000/svg">
<path d="M17.7309 1.16648C14.8896 2.53087 15.9946 6.75607 19.1741 6.75607C20.3016 6.75607 21.0232 6.35996 21.6546 5.4577C23.4135 2.90498 20.5722 -0.197906 17.7309 1.16648Z" fill="#FFDD00"/>
<path d="M64.5449 3.60918C64.5449 3.71921 64.5449 7.1962 64.5675 11.3774C64.59 19.8058 64.59 19.7618 66.146 20.7741C66.7774 21.2142 67.1833 21.2802 68.8745 21.2802H70.8815V19.5197V17.7592H69.5285H68.1755V10.6072V3.45514H66.3715C65.3793 3.45514 64.5675 3.52116 64.5449 3.60918Z" fill="#0D52F2"/>
<path d="M147.913 5.65576V7.85639H143.944C140.178 7.85639 139.907 7.8784 139.208 8.34053C137.562 9.44084 137.517 9.59488 137.517 14.5243C137.517 18.5734 137.562 19.0356 137.968 19.6958C138.915 21.2362 139.141 21.2802 145.725 21.2802H151.611V12.3677V3.45514H149.762H147.89L147.913 5.65576ZM147.935 14.6123L147.958 17.7592H144.598H141.238V14.5683V11.3554L144.575 11.4214L147.89 11.4874L147.935 14.6123Z" fill="#0D52F2"/>
<path d="M166.877 5.03961C166.9 5.91987 166.922 6.71209 166.922 6.80012C166.945 6.91015 167.757 6.97617 168.749 6.97617H170.553V5.21566V3.45516H168.704H166.832L166.877 5.03961Z" fill="#FFDD00"/>
<path d="M46.9786 4.79749C46.6629 4.92952 46.1668 5.23761 45.8962 5.50169C44.7462 6.53598 44.7236 6.69002 44.7236 14.2382V21.2802H46.5953H48.4444L48.3767 18.6394L48.3091 15.9987H53.2926H58.2762L58.2311 18.5734L58.2085 21.1701L60.0351 21.2362L61.8617 21.3022V14.1722C61.8617 7.13015 61.8617 7.04212 61.3656 6.31592C61.0724 5.91981 60.5538 5.36965 60.2155 5.12758C59.6066 4.68745 59.2684 4.66545 53.5632 4.62144C49.865 4.59943 47.3169 4.66545 46.9786 4.79749ZM58.2311 10.277L58.2085 12.2576H53.3152H48.4444L48.3993 10.277L48.3542 8.29648H53.3152H58.2762L58.2311 10.277Z" fill="#0D52F2"/>
<path d="M13.785 7.57034C12.4545 8.38457 12.3192 9.94702 13.4918 11.0913C14.2134 11.7955 14.3938 11.8616 15.2056 11.7515C16.2429 11.6195 16.8292 11.1794 17.2126 10.2551C17.5734 9.44087 17.3479 8.60463 16.5361 7.83442C15.7919 7.0862 14.7321 6.99818 13.785 7.57034Z" fill="#FFDD00"/>
<path d="M74.4897 8.34053C72.8661 9.41884 72.7984 9.6389 72.7308 14.1942C72.6406 18.9475 72.8435 19.8278 74.2191 20.7301C75.0534 21.2802 75.0534 21.2802 80.8488 21.2802H86.6216L86.7118 19.7398C86.7569 18.8815 86.7569 18.0893 86.7118 17.9793C86.6667 17.8472 84.6372 17.7592 81.4576 17.7592H76.2937V17.099V16.4388H81.5704H86.8471L86.8246 13.402C86.7795 10.013 86.5314 9.2868 85.0882 8.36254C84.3892 7.8784 84.1411 7.85639 79.7889 7.85639C75.4368 7.85639 75.1887 7.8784 74.4897 8.34053ZM83.0587 12.3677V13.38L79.7438 13.3139L76.429 13.2479L76.3839 12.4777C76.3613 12.0596 76.3839 11.6415 76.4515 11.5314C76.4966 11.4434 78.0075 11.3774 79.8115 11.3774H83.0587V12.3677Z" fill="#0D52F2"/>
<path d="M88.6508 8.40655C88.5606 8.84667 88.9665 9.44084 90.8607 11.6415C92.1461 13.1159 93.2059 14.4143 93.2059 14.5023C93.2059 14.5903 92.1912 15.8887 90.9509 17.3631C89.3048 19.3437 88.6959 20.2239 88.6959 20.664V21.2802H90.5901H92.4843L94.1305 19.3217L95.7541 17.3411L97.3551 19.2996L98.9562 21.2582H100.941L102.902 21.2802V20.708C102.902 20.3119 102.181 19.2776 100.535 17.3191L98.1669 14.4803L100.535 11.7735C102.271 9.77094 102.902 8.91269 102.902 8.45056V7.85639H101.008H99.0915L97.4679 9.72692C96.5884 10.7612 95.7992 11.5975 95.709 11.5754C95.6413 11.5754 94.8746 10.7392 93.9952 9.70492L92.4392 7.85639H90.5901C88.8087 7.85639 88.741 7.8784 88.6508 8.40655Z" fill="#0D52F2"/>
<path d="M105.383 9.61689V11.3774H110.457H115.531V12.1476V12.9178H110.48H105.406L105.338 15.8227C105.271 19.1676 105.519 20.0479 106.849 20.8401C107.526 21.2582 107.954 21.2802 113.479 21.2802H119.387L119.319 15.6906C119.252 9.46285 119.252 9.46285 117.56 8.34053C116.839 7.8784 116.658 7.85639 111.111 7.85639H105.383V9.61689ZM115.531 16.879V17.7592H112.261H108.991V16.879V15.9987H112.261H115.531V16.879Z" fill="#0D52F2"/>
<path d="M121.619 14.5683V21.2802H123.423H125.227L125.272 16.3728L125.34 11.4874L128.677 11.4214L131.992 11.3554V16.3288V21.2802H133.796H135.6V20.0038C135.69 9.79294 135.668 9.50686 134.18 8.42855C133.571 7.98843 133.232 7.96642 127.572 7.9004L121.619 7.83438V14.5683Z" fill="#0D52F2"/>
<path d="M155.58 8.36254C153.956 9.26479 153.866 9.6389 153.866 15.8227V21.2802H155.67H157.474V16.3288V11.3774H161.194H164.915V9.61689V7.85639H160.698C156.73 7.85639 156.414 7.9004 155.58 8.36254Z" fill="#0D52F2"/>
<path d="M166.945 14.5683V21.2802H168.749H170.553V14.5683V7.85639H168.749H166.945V14.5683Z" fill="#0D52F2"/>
<path d="M172.356 9.61689V11.3774H177.566H182.752L182.684 12.0816L182.617 12.8078L177.498 12.8738L172.356 12.9178V15.8447C172.356 19.1456 172.604 19.9378 173.912 20.7741C174.657 21.2582 174.814 21.2802 180.497 21.2802H186.337V15.6906C186.337 10.2771 186.315 10.101 185.841 9.39683C184.804 7.94442 184.421 7.85639 178.062 7.85639H172.356V9.61689ZM182.729 16.879V17.7592H179.347H175.964V16.879V15.9987H179.347H182.729V16.879Z" fill="#0D52F2"/>
<path d="M19.1519 10.5191C18.1146 11.3114 18.4078 13.0498 19.648 13.556C20.8883 14.0621 22.1511 13.2039 22.1736 11.8615C22.1736 10.3431 20.4147 9.55085 19.1519 10.5191Z" fill="#FFDD00"/>
<path d="M23.7972 12.5217C23.6168 12.6978 23.5266 13.534 23.5266 14.8544C23.5266 17.4731 23.1658 18.3094 21.7902 18.9035C21.249 19.1236 20.8206 19.3657 20.8206 19.4317C20.8206 19.4757 21.5873 21.3242 22.5344 23.5028C23.504 25.7915 24.158 27.574 24.0452 27.684C23.9325 27.7941 19.9862 29.5105 15.2958 31.4911C1.4952 37.3008 0.908902 37.5648 0.480451 37.9389C-0.128399 38.4891 -0.0156491 39.5674 0.886352 41.702C1.856 44.0127 1.9913 44.1667 2.82565 44.1667C3.18645 44.1667 8.71121 41.9661 15.2507 39.1933C24.7668 35.1662 27.0444 34.2859 27.2248 34.528C27.3375 34.704 28.1944 36.6626 29.1415 38.8852C30.4043 41.8781 31.0132 43.0224 31.4642 43.3525L32.0956 43.8146L34.2829 42.9344C36.7183 41.9881 37.5076 41.3939 37.5076 40.5357C37.5076 40.2056 36.2448 37.0587 34.7114 33.5377C33.178 29.9947 30.5847 23.987 28.9386 20.1799C27.315 16.3728 25.8267 13.0279 25.6463 12.7418C25.2855 12.2136 24.2482 12.0816 23.7972 12.5217Z" fill="#021031"/>
<path d="M9.22977 12.8738C9.11702 13.0719 5.14822 22.2045 1.87847 29.7966C0.142116 33.8678 -0.173585 34.748 0.0744656 35.0341C0.232316 35.2102 0.548016 35.3642 0.796066 35.3642C1.60787 35.3642 8.44052 32.4594 8.75622 31.9752C9.22977 31.249 14.0555 20.0698 14.0555 19.7177C14.0555 19.5197 13.7172 19.2996 13.2211 19.1676C11.8456 18.8375 11.5299 18.1553 11.372 15.2945L11.2367 12.8078L10.2896 12.7418C9.79353 12.6977 9.29743 12.7638 9.22977 12.8738Z" fill="#021031"/>
<path d="M16.0176 14.1942C15.5666 14.6784 15.5215 15.8007 15.9048 16.1748C16.2882 16.5489 17.5735 16.5049 17.9794 16.0868C18.4755 15.6246 18.4304 14.6124 17.9343 14.1722C17.3931 13.6881 16.4686 13.7101 16.0176 14.1942Z" fill="#FFDD00"/>
<path d="M45.152 24.5591L44.498 25.1973V33.0536V40.9098L45.152 41.548L45.8285 42.1862L95.9121 42.1421L145.996 42.0761L146.041 36.3545L146.086 30.6329L148.814 30.5668C151.295 30.5228 151.588 30.5448 152.129 30.963C152.716 31.4251 152.738 31.5131 152.738 33.6257C152.738 34.8361 152.648 36.0244 152.513 36.2445C152.197 36.8166 151.092 37.1247 149.333 37.1247H147.777V39.6554V42.1862H150.709H153.64V36.3545V30.5228H156.459C159.165 30.5228 159.323 30.5448 159.841 31.073C160.36 31.5571 160.405 31.7772 160.405 33.6917C160.405 35.5843 160.36 35.8484 159.864 36.3985C159.3 37.0367 159.233 37.0367 155.85 37.1247C155.489 37.1247 155.444 37.3888 155.444 39.6554V42.1862H170.327C180.407 42.1862 185.368 42.1201 185.729 41.9441C186.856 41.4379 186.901 41.2619 186.969 33.8238C187.059 26.0336 186.992 25.1973 186.225 24.4491L185.684 23.921H115.756H45.8059L45.152 24.5591ZM52.3906 29.2025V30.0827H51.1503C50.4738 30.0827 49.9101 30.1707 49.9101 30.3028C49.9101 30.4128 50.4738 30.5228 51.1503 30.5228H52.3906V31.4031V32.2833H51.1503H49.9101V34.704C49.9101 37.3008 49.9101 37.3228 48.6698 36.9927C48.2414 36.8826 48.2188 36.7066 48.2188 33.1856C48.2188 28.5643 48.3316 28.3662 51.1052 28.3442L52.3906 28.3222V29.2025ZM80.082 29.4665L80.1496 30.5228H82.0664C83.8027 30.5228 84.0282 30.5668 84.5469 31.073C85.0881 31.6011 85.1106 31.6892 85.043 34.3079L84.9753 37.0147H84.1861H83.3968L83.3292 34.638L83.2615 32.2833H81.7056H80.1496L80.082 34.638L80.0143 37.0147H79.2251H78.4358L78.3682 32.9435C78.3456 30.7209 78.3682 28.7623 78.4358 28.5863C78.5035 28.4102 78.8192 28.3222 79.2702 28.3662C79.9918 28.4322 80.0143 28.4763 80.082 29.4665ZM106.917 29.2465L106.984 30.0827H106.082H105.158V29.1805V28.3002L106.015 28.3662C106.804 28.4322 106.849 28.4763 106.917 29.2465ZM125.002 31.8432V35.3642H125.678C126.31 35.3642 126.355 35.4082 126.355 36.2005C126.355 36.9047 126.287 37.0367 125.859 37.0807C125.069 37.1467 123.897 36.6846 123.649 36.2445C123.513 36.0244 123.423 34.1539 123.423 32.0853V28.3222H124.212H125.002V31.8432ZM163.066 31.8872L163.134 35.3642H163.81C164.442 35.3642 164.464 35.4082 164.397 36.1344C164.284 37.1467 164.216 37.1907 163.111 37.0147C161.375 36.7286 161.307 36.5526 161.307 32.1513V28.3002L162.164 28.3662L162.998 28.4322L163.066 31.8872ZM167.17 29.2025V30.0827H166.268C165.389 30.0827 165.366 30.0607 165.366 29.3565C165.366 28.4322 165.479 28.3222 166.426 28.3222C167.148 28.3222 167.17 28.3442 167.17 29.2025ZM59.4938 31.073C60.0125 31.5571 60.0576 31.7552 60.0576 33.7578C60.035 36.8166 59.6742 37.1467 56.3143 37.0587C54.5103 37.0147 54.3299 36.9707 53.8338 36.3985C53.3602 35.8484 53.2926 35.5623 53.2926 33.9118C53.2926 31.9092 53.6534 30.8529 54.3524 30.6769C54.5779 30.6109 55.7054 30.5668 56.8555 30.5448C58.7948 30.5228 58.9977 30.5668 59.4938 31.073ZM66.2588 31.4031V32.1733L64.5225 32.2393L62.7636 32.3053V34.594C62.7636 37.0367 62.6734 37.2127 61.5233 37.0367C61.0949 36.9707 61.0723 36.7726 61.0047 34.2859C60.937 31.6892 60.9596 31.6011 61.5233 31.051C62.042 30.5448 62.1998 30.5008 64.1617 30.5668L66.2588 30.6329V31.4031ZM77.4211 31.4031V32.2833H74.9406H72.4601V33.8238V35.3642H74.9631H77.4436L77.376 36.1784L77.3083 37.0147H74.5347C71.761 37.0147 71.7385 37.0147 71.1973 36.3985C70.7012 35.8484 70.6561 35.5843 70.6561 33.6917C70.6561 31.7772 70.7012 31.5571 71.2198 31.073C71.7385 30.5448 71.8963 30.5228 74.6023 30.5228H77.4211V31.4031ZM91.7178 30.7649C92.4619 31.117 92.8002 31.9753 92.71 33.4057L92.6423 34.594L90.2971 34.638C88.4029 34.66 87.9068 34.726 87.749 35.0121C87.5686 35.3202 87.8392 35.3642 90.1618 35.3642H92.7776L92.71 36.1784L92.6423 37.0147L90.5001 37.0807C86.3283 37.2127 85.9901 36.9707 85.9901 33.8238C85.9901 31.7552 86.0352 31.5571 86.5538 31.073C87.0499 30.5668 87.2754 30.5228 89.1245 30.5228C90.252 30.5228 91.4021 30.6329 91.7178 30.7649ZM103.015 31.073C103.557 31.5791 103.579 31.7332 103.579 34.3739V37.1467L102.745 37.0807L101.888 37.0147L101.82 34.638L101.753 32.2833H100.76H99.7682L99.7005 34.638L99.6329 37.0147L98.7985 37.0807L97.9416 37.1467V34.726V32.2833H96.8141H95.7092L95.6415 34.638L95.5739 37.0147H94.7846H93.9953L93.9277 33.7578L93.86 30.5228H98.1671C102.429 30.5228 102.474 30.5228 103.015 31.073ZM106.849 33.8238V37.0147L106.015 37.0807L105.158 37.1467V33.8238V30.5008L106.015 30.5668L106.849 30.6329V33.8238ZM114.516 31.4031V32.1733L112.103 32.2393L109.713 32.3053L109.623 33.7358C109.6 34.528 109.6 35.2322 109.645 35.2762C109.69 35.3202 110.84 35.3642 112.193 35.3642H114.651L114.584 36.1784L114.516 37.0147L112.599 37.0807C110.074 37.1687 108.856 36.9927 108.315 36.3985C107.931 36.0024 107.864 35.6283 107.864 33.7798C107.864 31.7552 107.909 31.5571 108.427 31.051C108.969 30.5228 109.059 30.5008 111.742 30.5668L114.516 30.6329V31.4031ZM121.777 31.051C122.408 31.5791 122.408 31.6011 122.408 34.3079V37.0147L120.266 37.0807C116.32 37.2127 115.756 36.8826 115.756 34.484V32.9435H118.237C120.289 32.9435 120.717 32.8775 120.717 32.6134C120.717 32.3494 120.289 32.2833 118.237 32.2833H115.756V31.4031V30.5228H118.44C120.965 30.5228 121.191 30.5669 121.777 31.051ZM136.908 30.8969C137.179 31.117 137.449 31.5571 137.539 31.9092L137.675 32.5034L135.172 32.3714C132.939 32.2393 132.669 32.2613 132.669 32.5694C132.669 32.8995 132.962 32.9435 134.585 32.9435C136.344 32.9435 136.57 32.9875 137.066 33.4937C137.833 34.2199 137.833 35.5403 137.088 36.3985C136.547 36.9927 136.48 37.0147 134.292 37.0147C132.218 37.0147 131.992 36.9707 131.451 36.4865C131.135 36.1784 130.865 35.7603 130.865 35.5403C130.865 35.1662 131.022 35.1442 133.345 35.2762C135.555 35.4082 135.826 35.3862 135.826 35.0781C135.826 34.77 135.555 34.704 134.134 34.704C132.353 34.704 131.271 34.3519 131 33.7137C130.662 32.8555 130.865 31.6011 131.428 31.073C131.924 30.5668 132.127 30.5228 134.202 30.5228C136.029 30.5228 136.547 30.5889 136.908 30.8969ZM140.11 32.9435V35.3862L141.711 35.3202L143.312 35.2542L143.357 32.9435L143.38 30.6329L144.237 30.5668L145.071 30.5008V33.1636C145.071 34.638 144.981 36.0244 144.846 36.2445C144.507 36.8606 143.335 37.1247 141.283 37.0367C138.599 36.9267 138.441 36.7506 138.351 33.5817C138.306 32.2613 138.329 31.029 138.396 30.8529C138.464 30.6549 138.825 30.5228 139.321 30.5228H140.11V32.9435ZM167.17 33.8018V37.0807L166.336 37.0587L165.479 37.0147L165.434 34.0438C165.411 32.4154 165.434 30.941 165.479 30.7869C165.524 30.6549 165.93 30.5228 166.381 30.5228H167.17V33.8018ZM174.251 30.985C174.792 31.4031 174.837 31.5571 174.837 33.0756V34.704H172.357C170.305 34.704 169.876 34.77 169.876 35.0341C169.876 35.2982 170.305 35.3642 172.357 35.3642H174.837V36.2665V37.1687L172.041 37.1027C168.298 36.9927 168.298 36.9927 168.298 33.8018C168.298 31.5131 168.32 31.4251 168.884 30.985C169.403 30.5889 169.809 30.5228 171.567 30.5228C173.326 30.5228 173.732 30.5889 174.251 30.985ZM182.166 31.073C182.482 31.3591 182.73 31.7992 182.73 32.0633C182.73 32.5034 182.662 32.5034 180.249 32.3714C178.039 32.2393 177.769 32.2613 177.769 32.5694C177.769 32.8995 178.062 32.9435 179.685 32.9435C181.444 32.9435 181.67 32.9875 182.166 33.4937C182.933 34.2199 182.933 35.5403 182.188 36.3985C181.647 36.9927 181.58 37.0147 179.347 37.0147C177.115 37.0147 177.047 36.9927 176.506 36.3985C175.491 35.2322 175.672 35.1221 178.445 35.2762C180.655 35.4082 180.926 35.3862 180.926 35.0781C180.926 34.77 180.655 34.704 179.234 34.704C178.31 34.704 177.318 34.594 177.025 34.462C175.874 33.9558 175.581 31.9753 176.528 31.073C177.025 30.5668 177.227 30.5228 179.347 30.5228C181.467 30.5228 181.67 30.5668 182.166 31.073Z" fill="#FFDD00"/>
</svg>
